<?xml version="1.0" encoding="utf-8"?>
<!-- Generator: Adobe Illustrator 18.1.1, SVG Export Plug-In . SVG Version: 6.00 Build 0)  -->
<svg version="1.1" id="Layer_1" xmlns="http://www.w3.org/2000/svg" xmlns:xlink="http://www.w3.org/1999/xlink" x="0px" y="0px"
	 viewBox="0 0 800 600" enable-background="new 0 0 800 600" xml:space="preserve">
<g>
	<g>
		<path fill="#4656A6" d="M-3114.2,28.8c4.6,0,4.6-7.1,0-7.1C-3118.8,21.7-3118.8,28.8-3114.2,28.8L-3114.2,28.8z"/>
	</g>
</g>
<g>
	<path fill="#FFFFFF" d="M792.3,153.7c0-69.7-56.1-126.3-125.5-127.3l0,0h-51.6c-2.4,0-4.3,1.8-4.3,4.3v48.4c0,2.4-1.8,4.3-4.3,4.3
		h-50.5c-2.4,0-4.3,1.8-4.3,4.3v7.7v117.1v64.4c0,2.4,1.8,4.3,4.3,4.3H665l0,0l0,0h1.8l0,0C736.3,280.1,792.3,223.5,792.3,153.7z"/>
	<g>
		<path fill="#FFFFFF" d="M388.1,279.7c-68,0-123.2-56.5-123.2-125.9S320.1,27.8,388.1,27.8s123.2,56.5,123.2,125.9
			S456,279.7,388.1,279.7z M388.1,53.3c-53.9,0-97.9,45.1-97.9,100.4s43.8,100.4,97.9,100.4S486,209.1,486,153.7
			S442,53.3,388.1,53.3z"/>
	</g>
	<path fill="#FFFFFF" d="M387.8,323.5c0-2.4-2-4.4-4.4-4.3c-66.4,2.4-119.5,58.3-119.5,126.9c0,70.1,55.5,126.9,123.9,126.9
		c67,0,121.5-54.5,123.8-122.5c0.1-2.4-1.8-4.4-4.3-4.4H392.1c-2.4,0-4.3-1.8-4.3-4.3V323.5z"/>
	<path fill="#FFFFFF" d="M123.9,155.5c0-1.1,0.4-2.3,1.3-3l43.1-43.1l41.3-41.3c1.7-1.7,1.7-4.4,0-6.1c-10.7-10.4-23-18.9-36.7-24.9
		c-14.9-6.7-31.6-10.2-48.9-10.2c-34.3,0-65.2,14.2-87.6,37.1S0,118.7,0,153.7s13.8,66.7,36.3,89.8c21.5,21.9,50.8,35.9,83.2,37.1
		c2.4,0.1,4.4-1.8,4.4-4.3v-59V155.5z"/>
	<g>
		<path fill="#FFFFFF" d="M163.8,573.6h-115c-9.2,0-16.6-7.5-16.6-16.6V336.4c0-9.2,7.5-16.6,16.6-16.6h115
			c9.2,0,16.6,7.5,16.6,16.6v220.5C180.4,566.1,173,573.6,163.8,573.6z M57.8,548h97V345.2h-97V548z"/>
	</g>
	<g>
		<path fill="#FFFFFF" d="M675.8,573.3c-68.4,0-124.2-56.6-124.2-126.2V336.4c0-9.1,7.4-16.6,16.6-16.6h215.1
			c9.1,0,16.6,7.4,16.6,16.6v110.7C800,516.7,744.2,573.3,675.8,573.3z M577.2,345.2V447c0,55.5,44.2,100.7,98.6,100.7
			s98.6-45.1,98.6-100.7V345.2L577.2,345.2L577.2,345.2z"/>
	</g>
</g>
</svg>
