<svg version="1.1" xmlns="http://www.w3.org/2000/svg" xmlns:xlink="http://www.w3.org/1999/xlink" x="0px" y="0px" viewBox="0 0 100 100" enable-background="new 0 0 100 100" xml:space="preserve">
<g>
  <path fill="#1a1a1a" d="M24.9,50c0-12.3,8.8-22.5,20.5-24.7v8.4l19.3-14.8L45.4,4v9.1C27.1,15.5,12.9,31.1,12.9,50
    c0,11.4,5.1,22,14.1,29.1l7.5-9.4C28.3,64.9,24.9,57.7,24.9,50z"></path>
  <path fill="#1a1a1a" d="M87.1,50c0-11.4-5.1-22-14.1-29.1l-7.5,9.4c6.1,4.8,9.5,12,9.5,19.7c0,12.3-8.8,22.5-20.5,24.7v-8.4
    L35.3,81.1L54.6,96v-9.1C72.9,84.5,87.1,68.9,87.1,50z"></path>
</g>
</svg>