<?xml version="1.0" encoding="utf-8"?>
<!-- Generator: Adobe Illustrator 18.1.1, SVG Export Plug-In . SVG Version: 6.00 Build 0)  -->
<svg version="1.1" id="Layer_1" xmlns="http://www.w3.org/2000/svg" xmlns:xlink="http://www.w3.org/1999/xlink" x="0px" y="0px"
	 viewBox="0 0 562.3 384.6" enable-background="new 0 0 562.3 384.6" xml:space="preserve">
<g>
	<g>
		
			<rect x="-200.8" y="-664.5" transform="matrix(-0.7071 0.7071 -0.7071 -0.7071 -793.5297 -996.6036)" fill="#1A1A1A" width="20.9" height="3.7"/>
	</g>
	<g>
		<g>
			<rect x="66.2" y="-671.6" fill="#1A1A1A" width="3.2" height="18"/>
		</g>
		<g>
			<rect x="58.8" y="-664.2" fill="#1A1A1A" width="18" height="3.2"/>
		</g>
	</g>
	<g>
		<path fill="#1A1A1A" d="M78.2-851.5H57.5l9.9-20.7L78.2-851.5z M63.3-855.2h8.8l-4.6-8.8L63.3-855.2z"/>
	</g>
	<g>
		<path fill="#1A1A1A" d="M-190.4-852.6c-5.1,0-9.2-4.1-9.2-9.2c0-5.1,4.1-9.2,9.2-9.2s9.2,4.1,9.2,9.2
			C-181.1-856.8-185.3-852.6-190.4-852.6z M-190.4-867.4c-3.1,0-5.5,2.5-5.5,5.5c0,3.1,2.5,5.5,5.5,5.5c3.1,0,5.5-2.5,5.5-5.5
			C-184.8-864.9-187.3-867.4-190.4-867.4z"/>
	</g>
	<path fill="#1A1A1A" d="M67.8-762.2"/>
	<path fill="#1A1A1A" d="M-184.9-759.9c-1,1.2-2.5,2-4.2,2c-3.1,0-5.5-2.5-5.5-5.5c0-1.7,0.8-3.2,2-4.2l-2.6-2.6
		c-1.9,1.7-3.1,4.1-3.1,6.8c0,5.1,4.1,9.2,9.2,9.2c2.7,0,5.1-1.2,6.8-3.1L-184.9-759.9z"/>
	<g>
		<path fill="#1A1A1A" d="M-52.8-852.6h-18.5v-18.5h18.5V-852.6z M-67.6-856.3h11.1v-11.1h-11.1V-856.3z"/>
	</g>
	<g>
		<path fill="#1A1A1A" d="M-62-675.7l13.1,13.1L-62-649.6l-13.1-13.1L-62-675.7z M-54.2-662.6l-7.8-7.8l-7.8,7.8l7.8,7.8
			L-54.2-662.6z"/>
	</g>
	<g>
		<g>
			
				<rect x="-72.5" y="-764.1" transform="matrix(0.7071 0.7071 -0.7071 0.7071 -557.1518 -179.3916)" fill="#1A1A1A" width="20.9" height="3.7"/>
		</g>
		<g>
			
				<rect x="-72.5" y="-764.1" transform="matrix(0.7071 0.7071 -0.7071 0.7071 -557.1518 -179.3916)" fill="#1A1A1A" width="20.9" height="3.7"/>
		</g>
		<g>
			
				<rect x="-72.5" y="-764.1" transform="matrix(0.7071 0.7071 -0.7071 0.7071 -557.1518 -179.3916)" fill="#1A1A1A" width="20.9" height="3.7"/>
		</g>
		<g>
			
				<rect x="-63.9" y="-772.7" transform="matrix(0.7071 0.7071 -0.7071 0.7071 -557.1518 -179.3916)" fill="#1A1A1A" width="3.7" height="20.9"/>
		</g>
		<g>
			
				<rect x="-63.9" y="-772.7" transform="matrix(0.7071 0.7071 -0.7071 0.7071 -557.1518 -179.3916)" fill="#1A1A1A" width="3.7" height="20.9"/>
		</g>
		<g>
			
				<rect x="-63.9" y="-772.7" transform="matrix(0.7071 0.7071 -0.7071 0.7071 -557.1518 -179.3916)" fill="#1A1A1A" width="3.7" height="20.9"/>
		</g>
	</g>
	<polygon fill="#1A1A1A" points="62,-756.4 62,-771.5 58.6,-771.5 58.6,-753 77.1,-753 77.1,-756.4 	"/>
	<g>
		
			<rect x="184.5" y="-765.9" transform="matrix(-0.7071 0.7071 -0.7071 -0.7071 -207.531 -1442.1605)" fill="#1A1A1A" width="20.9" height="3.7"/>
	</g>
	<g>
		<g>
			<rect x="451.5" y="-773.1" fill="#1A1A1A" width="3.2" height="18"/>
		</g>
		<g>
			<rect x="444.1" y="-765.7" fill="#1A1A1A" width="18" height="3.2"/>
		</g>
	</g>
	<g>
		<path fill="#1A1A1A" d="M463.5-652.6h-20.8l9.9-20.7L463.5-652.6z M448.6-656.3h8.8l-4.6-8.8L448.6-656.3z"/>
	</g>
	<g>
		<path fill="#1A1A1A" d="M194.9-653.8c-5.1,0-9.2-4.1-9.2-9.2c0-5.1,4.1-9.2,9.2-9.2s9.2,4.1,9.2,9.2
			C204.1-657.9,200-653.8,194.9-653.8z M194.9-668.6c-3.1,0-5.5,2.5-5.5,5.5c0,3.1,2.5,5.5,5.5,5.5c3.1,0,5.5-2.5,5.5-5.5
			C200.5-666.1,198-668.6,194.9-668.6z"/>
	</g>
	<path fill="#1A1A1A" d="M453.1-863.7"/>
	<path fill="#1A1A1A" d="M200.3-861.3c-1,1.2-2.5,2-4.2,2c-3.1,0-5.5-2.5-5.5-5.5c0-1.7,0.8-3.2,2-4.2l-2.6-2.6
		c-1.9,1.7-3.1,4.1-3.1,6.8c0,5.1,4.1,9.2,9.2,9.2c2.7,0,5.1-1.2,6.8-3.1L200.3-861.3z"/>
	<g>
		<path fill="#1A1A1A" d="M332.5-653.8H314v-18.5h18.5V-653.8z M317.7-657.5h11.1v-11.1h-11.1V-657.5z"/>
	</g>
	<g>
		<path fill="#1A1A1A" d="M323.2-777.1l13.1,13.1L323.2-751l-13.1-13.1L323.2-777.1z M331.1-764.1l-7.8-7.8l-7.8,7.8l7.8,7.8
			L331.1-764.1z"/>
	</g>
	<g>
		<g>
			
				<rect x="312.8" y="-865.5" transform="matrix(0.7071 0.7071 -0.7071 0.7071 -516.0174 -481.5273)" fill="#1A1A1A" width="20.9" height="3.7"/>
		</g>
		<g>
			
				<rect x="312.8" y="-865.5" transform="matrix(0.7071 0.7071 -0.7071 0.7071 -516.0174 -481.5273)" fill="#1A1A1A" width="20.9" height="3.7"/>
		</g>
		<g>
			
				<rect x="312.8" y="-865.5" transform="matrix(0.7071 0.7071 -0.7071 0.7071 -516.0174 -481.5273)" fill="#1A1A1A" width="20.9" height="3.7"/>
		</g>
		<g>
			
				<rect x="321.4" y="-874.1" transform="matrix(0.7071 0.7071 -0.7071 0.7071 -516.0174 -481.5273)" fill="#1A1A1A" width="3.7" height="20.9"/>
		</g>
		<g>
			
				<rect x="321.4" y="-874.1" transform="matrix(0.7071 0.7071 -0.7071 0.7071 -516.0174 -481.5273)" fill="#1A1A1A" width="3.7" height="20.9"/>
		</g>
		<g>
			
				<rect x="321.4" y="-874.1" transform="matrix(0.7071 0.7071 -0.7071 0.7071 -516.0174 -481.5273)" fill="#1A1A1A" width="3.7" height="20.9"/>
		</g>
	</g>
	<polygon fill="#1A1A1A" points="447.3,-857.9 447.3,-872.9 443.9,-872.9 443.9,-854.4 462.3,-854.4 462.3,-857.9 	"/>
	<g>
		
			<rect x="-200.8" y="-364.3" transform="matrix(-0.7071 0.7071 -0.7071 -0.7071 -581.228 -484.0618)" fill="#1A1A1A" width="20.9" height="3.7"/>
	</g>
	<g>
		<g>
			<rect x="66.2" y="-371.4" fill="#1A1A1A" width="3.2" height="18"/>
		</g>
		<g>
			<rect x="58.8" y="-364" fill="#1A1A1A" width="18" height="3.2"/>
		</g>
	</g>
	<g>
		<path fill="#1A1A1A" d="M78.2-551.2H57.5l9.9-20.7L78.2-551.2z M63.3-554.9h8.8l-4.6-8.8L63.3-554.9z"/>
	</g>
	<g>
		<path fill="#1A1A1A" d="M-190.4-552.4c-5.1,0-9.2-4.1-9.2-9.2c0-5.1,4.1-9.2,9.2-9.2s9.2,4.1,9.2,9.2
			C-181.1-556.5-185.3-552.4-190.4-552.4z M-190.4-567.1c-3.1,0-5.5,2.5-5.5,5.5s2.5,5.5,5.5,5.5c3.1,0,5.5-2.5,5.5-5.5
			S-187.3-567.1-190.4-567.1z"/>
	</g>
	<path fill="#1A1A1A" d="M67.8-462"/>
	<path fill="#1A1A1A" d="M-184.9-459.6c-1,1.2-2.5,2-4.2,2c-3.1,0-5.5-2.5-5.5-5.5c0-1.7,0.8-3.2,2-4.2l-2.6-2.6
		c-1.9,1.7-3.1,4.1-3.1,6.8c0,5.1,4.1,9.2,9.2,9.2c2.7,0,5.1-1.2,6.8-3.1L-184.9-459.6z"/>
	<g>
		<path fill="#1A1A1A" d="M-52.8-552.4h-18.5v-18.5h18.5V-552.4z M-67.6-556.1h11.1v-11.1h-11.1V-556.1z"/>
	</g>
	<g>
		<path fill="#1A1A1A" d="M-62-375.5l13.1,13.1L-62-349.4l-13.1-13.1L-62-375.5z M-54.2-362.4l-7.8-7.8l-7.8,7.8l7.8,7.8
			L-54.2-362.4z"/>
	</g>
	<g>
		<g>
			
				<rect x="-72.5" y="-463.8" transform="matrix(0.7071 0.7071 -0.7071 0.7071 -344.85 -91.4533)" fill="#1A1A1A" width="20.9" height="3.7"/>
		</g>
		<g>
			
				<rect x="-72.5" y="-463.8" transform="matrix(0.7071 0.7071 -0.7071 0.7071 -344.85 -91.4533)" fill="#1A1A1A" width="20.9" height="3.7"/>
		</g>
		<g>
			
				<rect x="-72.5" y="-463.8" transform="matrix(0.7071 0.7071 -0.7071 0.7071 -344.85 -91.4533)" fill="#1A1A1A" width="20.9" height="3.7"/>
		</g>
		<g>
			
				<rect x="-63.9" y="-472.4" transform="matrix(0.7071 0.7071 -0.7071 0.7071 -344.85 -91.4533)" fill="#1A1A1A" width="3.7" height="20.9"/>
		</g>
		<g>
			
				<rect x="-63.9" y="-472.4" transform="matrix(0.7071 0.7071 -0.7071 0.7071 -344.85 -91.4533)" fill="#1A1A1A" width="3.7" height="20.9"/>
		</g>
		<g>
			
				<rect x="-63.9" y="-472.4" transform="matrix(0.7071 0.7071 -0.7071 0.7071 -344.85 -91.4533)" fill="#1A1A1A" width="3.7" height="20.9"/>
		</g>
	</g>
	<polygon fill="#1A1A1A" points="62,-456.2 62,-471.2 58.6,-471.2 58.6,-452.8 77.1,-452.8 77.1,-456.2 	"/>
	<g>
		
			<rect x="184.5" y="-465.7" transform="matrix(-0.7071 0.7071 -0.7071 -0.7071 4.7707 -929.6187)" fill="#1A1A1A" width="20.9" height="3.7"/>
	</g>
	<g>
		<g>
			<rect x="451.5" y="-472.8" fill="#1A1A1A" width="3.2" height="18"/>
		</g>
		<g>
			<rect x="444.1" y="-465.4" fill="#1A1A1A" width="18" height="3.2"/>
		</g>
	</g>
	<g>
		<path fill="#1A1A1A" d="M463.5-352.4h-20.8l9.9-20.7L463.5-352.4z M448.6-356.1h8.8l-4.6-8.8L448.6-356.1z"/>
	</g>
	<g>
		<path fill="#1A1A1A" d="M194.9-353.5c-5.1,0-9.2-4.1-9.2-9.2s4.1-9.2,9.2-9.2s9.2,4.1,9.2,9.2S200-353.5,194.9-353.5z
			 M194.9-368.3c-3.1,0-5.5,2.5-5.5,5.5s2.5,5.5,5.5,5.5c3.1,0,5.5-2.5,5.5-5.5S198-368.3,194.9-368.3z"/>
	</g>
	<path fill="#1A1A1A" d="M453.1-563.4"/>
	<path fill="#1A1A1A" d="M200.3-561.1c-1,1.2-2.5,2-4.2,2c-3.1,0-5.5-2.5-5.5-5.5c0-1.7,0.8-3.2,2-4.2l-2.6-2.6
		c-1.9,1.7-3.1,4.1-3.1,6.8c0,5.1,4.1,9.2,9.2,9.2c2.7,0,5.1-1.2,6.8-3.1L200.3-561.1z"/>
	<g>
		<path fill="#1A1A1A" d="M332.5-353.5H314V-372h18.5V-353.5z M317.7-357.2h11.1v-11.1h-11.1V-357.2z"/>
	</g>
	<g>
		<path fill="#1A1A1A" d="M323.2-476.9l13.1,13.1l-13.1,13.1l-13.1-13.1L323.2-476.9z M331.1-463.8l-7.8-7.8l-7.8,7.8l7.8,7.8
			L331.1-463.8z"/>
	</g>
	<g>
		<g>
			
				<rect x="312.8" y="-565.3" transform="matrix(0.7071 0.7071 -0.7071 0.7071 -303.7156 -393.589)" fill="#1A1A1A" width="20.9" height="3.7"/>
		</g>
		<g>
			
				<rect x="312.8" y="-565.3" transform="matrix(0.7071 0.7071 -0.7071 0.7071 -303.7156 -393.589)" fill="#1A1A1A" width="20.9" height="3.7"/>
		</g>
		<g>
			
				<rect x="312.8" y="-565.3" transform="matrix(0.7071 0.7071 -0.7071 0.7071 -303.7156 -393.589)" fill="#1A1A1A" width="20.9" height="3.7"/>
		</g>
		<g>
			
				<rect x="321.4" y="-573.9" transform="matrix(0.7071 0.7071 -0.7071 0.7071 -303.7156 -393.589)" fill="#1A1A1A" width="3.7" height="20.9"/>
		</g>
		<g>
			
				<rect x="321.4" y="-573.9" transform="matrix(0.7071 0.7071 -0.7071 0.7071 -303.7156 -393.589)" fill="#1A1A1A" width="3.7" height="20.9"/>
		</g>
		<g>
			
				<rect x="321.4" y="-573.9" transform="matrix(0.7071 0.7071 -0.7071 0.7071 -303.7156 -393.589)" fill="#1A1A1A" width="3.7" height="20.9"/>
		</g>
	</g>
	<polygon fill="#1A1A1A" points="447.3,-557.6 447.3,-572.6 443.9,-572.6 443.9,-554.2 462.3,-554.2 462.3,-557.6 	"/>
</g>
<g>
	<g>
		<path fill="#1A1A1A" d="M459.8-1143.2c0-25-20.1-45.2-44.9-45.6v0h-18.5c-0.8,0-1.5,0.7-1.5,1.5v17.3c0,0.8-0.7,1.5-1.5,1.5h-18.1
			c-0.8,0-1.5,0.7-1.5,1.5v2.7v41.9v23.1c0,0.8,0.7,1.5,1.5,1.5h39c0,0,0,0,0,0c0,0,0,0,0,0h0.6v0
			C439.7-1097.9,459.8-1118.2,459.8-1143.2z"/>
		<g>
			<path fill="#1A1A1A" d="M315-1098.1c-24.3,0-44.1-20.2-44.1-45.1c0-24.9,19.8-45.1,44.1-45.1s44.1,20.2,44.1,45.1
				C359.1-1118.3,339.3-1098.1,315-1098.1z M315-1179.2c-19.3,0-35,16.1-35,36s15.7,36,35,36c19.3,0,35-16.1,35-36
				S334.3-1179.2,315-1179.2z"/>
		</g>
		<path fill="#1A1A1A" d="M314.9-1082.4c0-0.9-0.7-1.6-1.6-1.5c-23.8,0.9-42.8,20.9-42.8,45.4c0,25.1,19.9,45.5,44.4,45.5
			c24,0,43.5-19.5,44.4-43.9c0-0.9-0.7-1.6-1.5-1.6h-41.3c-0.8,0-1.5-0.7-1.5-1.5V-1082.4z"/>
		<path fill="#1A1A1A" d="M220.4-1142.5c0-0.4,0.2-0.8,0.4-1.1l15.4-15.4l14.8-14.8c0.6-0.6,0.6-1.6,0-2.2
			c-3.8-3.7-8.2-6.8-13.1-8.9c-5.4-2.4-11.3-3.7-17.5-3.7c-12.3,0-23.4,5.1-31.4,13.3c-8,8.2-13,19.6-13,32.1c0,12.6,5,23.9,13,32.1
			c7.7,7.9,18.2,12.9,29.8,13.3c0.9,0,1.6-0.7,1.6-1.5v-21.2V-1142.5z"/>
		<g>
			<path fill="#1A1A1A" d="M234.6-992.8h-41.2c-3.3,0-6-2.7-6-6v-79c0-3.3,2.7-6,6-6h41.2c3.3,0,6,2.7,6,6v79
				C240.6-995.5,237.9-992.8,234.6-992.8z M196.7-1002h34.7v-72.6h-34.7V-1002z"/>
		</g>
		<g>
			<path fill="#1A1A1A" d="M418-992.9c-24.5,0-44.5-20.3-44.5-45.2l0-39.7c0-3.3,2.7-5.9,6-5.9h77.1c3.3,0,6,2.7,6,5.9v39.7
				C462.5-1013.2,442.5-992.9,418-992.9z M382.7-1074.6v36.4c0,19.9,15.9,36.1,35.3,36.1c19.5,0,35.3-16.2,35.3-36.1l0-36.4H382.7z"
				/>
		</g>
		<text transform="matrix(1 0 0 1 433.7876 -1062.7046)" fill="#1A1A1A" font-family="'GothamBlack'" font-size="9.8635">TM</text>
	</g>
	<g>
		
			<rect x="-204.8" y="-1302" transform="matrix(-0.7071 0.7071 -0.7071 -0.7071 -1251.1176 -2082.0046)" fill="#1A1A1A" width="20.9" height="3.7"/>
	</g>
	<g>
		<g>
			<rect x="62.2" y="-1309.1" fill="#1A1A1A" width="3.2" height="18"/>
		</g>
		<g>
			<rect x="54.8" y="-1301.7" fill="#1A1A1A" width="18" height="3.2"/>
		</g>
	</g>
	<g>
		<path fill="#1A1A1A" d="M74.2-1488.9H53.5l9.9-20.7L74.2-1488.9z M59.3-1492.6h8.8l-4.6-8.8L59.3-1492.6z"/>
	</g>
	<g>
		<path fill="#1A1A1A" d="M-194.4-1490.1c-5.1,0-9.2-4.1-9.2-9.2s4.1-9.2,9.2-9.2s9.2,4.1,9.2,9.2S-189.3-1490.1-194.4-1490.1z
			 M-194.4-1504.9c-3.1,0-5.5,2.5-5.5,5.5s2.5,5.5,5.5,5.5c3.1,0,5.5-2.5,5.5-5.5S-191.3-1504.9-194.4-1504.9z"/>
	</g>
	<path fill="#1A1A1A" d="M63.8-1399.7"/>
	<path fill="#1A1A1A" d="M-188.9-1397.3c-1,1.2-2.5,2-4.2,2c-3.1,0-5.5-2.5-5.5-5.5c0-1.7,0.8-3.2,2-4.2l-2.6-2.6
		c-1.9,1.7-3.1,4.1-3.1,6.8c0,5.1,4.1,9.2,9.2,9.2c2.7,0,5.1-1.2,6.8-3.1L-188.9-1397.3z"/>
	<g>
		<path fill="#1A1A1A" d="M-56.8-1490.1h-18.5v-18.5h18.5V-1490.1z M-71.6-1493.8h11.1v-11.1h-11.1V-1493.8z"/>
	</g>
	<g>
		<path fill="#1A1A1A" d="M-66-1313.2l13.1,13.1l-13.1,13.1l-13.1-13.1L-66-1313.2z M-58.2-1300.1l-7.8-7.8l-7.8,7.8l7.8,7.8
			L-58.2-1300.1z"/>
	</g>
	<g>
		<g>
			
				<rect x="-76.5" y="-1401.6" transform="matrix(0.7071 0.7071 -0.7071 0.7071 -1009.0828 -363.2738)" fill="#1A1A1A" width="20.9" height="3.7"/>
		</g>
		<g>
			
				<rect x="-76.5" y="-1401.6" transform="matrix(0.7071 0.7071 -0.7071 0.7071 -1009.0828 -363.2738)" fill="#1A1A1A" width="20.9" height="3.7"/>
		</g>
		<g>
			
				<rect x="-76.5" y="-1401.6" transform="matrix(0.7071 0.7071 -0.7071 0.7071 -1009.0828 -363.2738)" fill="#1A1A1A" width="20.9" height="3.7"/>
		</g>
		<g>
			
				<rect x="-67.9" y="-1410.2" transform="matrix(0.7071 0.7071 -0.7071 0.7071 -1009.0828 -363.2738)" fill="#1A1A1A" width="3.7" height="20.9"/>
		</g>
		<g>
			
				<rect x="-67.9" y="-1410.2" transform="matrix(0.7071 0.7071 -0.7071 0.7071 -1009.0828 -363.2738)" fill="#1A1A1A" width="3.7" height="20.9"/>
		</g>
		<g>
			
				<rect x="-67.9" y="-1410.2" transform="matrix(0.7071 0.7071 -0.7071 0.7071 -1009.0828 -363.2738)" fill="#1A1A1A" width="3.7" height="20.9"/>
		</g>
	</g>
	<polygon fill="#1A1A1A" points="58,-1393.9 58,-1408.9 54.6,-1408.9 54.6,-1390.5 73.1,-1390.5 73.1,-1393.9 	"/>
	<g>
		
			<rect x="180.5" y="-1403.4" transform="matrix(-0.7071 0.7071 -0.7071 -0.7071 -665.1188 -2527.5613)" fill="#1A1A1A" width="20.9" height="3.7"/>
	</g>
	<g>
		<g>
			<rect x="447.5" y="-1410.5" fill="#1A1A1A" width="3.2" height="18"/>
		</g>
		<g>
			<rect x="440.1" y="-1403.1" fill="#1A1A1A" width="18" height="3.2"/>
		</g>
	</g>
	<g>
		<path fill="#1A1A1A" d="M459.5-1290.1h-20.8l9.9-20.7L459.5-1290.1z M444.6-1293.8h8.8l-4.6-8.8L444.6-1293.8z"/>
	</g>
	<g>
		<path fill="#1A1A1A" d="M190.9-1291.3c-5.1,0-9.2-4.1-9.2-9.2c0-5.1,4.1-9.2,9.2-9.2s9.2,4.1,9.2,9.2
			C200.1-1295.4,196-1291.3,190.9-1291.3z M190.9-1306c-3.1,0-5.5,2.5-5.5,5.5c0,3.1,2.5,5.5,5.5,5.5c3.1,0,5.5-2.5,5.5-5.5
			C196.5-1303.5,194-1306,190.9-1306z"/>
	</g>
	<path fill="#1A1A1A" d="M449.1-1501.1"/>
	<path fill="#1A1A1A" d="M196.3-1498.8c-1,1.2-2.5,2-4.2,2c-3.1,0-5.5-2.5-5.5-5.5c0-1.7,0.8-3.2,2-4.2l-2.6-2.6
		c-1.9,1.7-3.1,4.1-3.1,6.8c0,5.1,4.1,9.2,9.2,9.2c2.7,0,5.1-1.2,6.8-3.1L196.3-1498.8z"/>
	<g>
		<path fill="#1A1A1A" d="M328.5-1291.3H310v-18.5h18.5V-1291.3z M313.7-1294.9h11.1v-11.1h-11.1V-1294.9z"/>
	</g>
	<g>
		<path fill="#1A1A1A" d="M319.2-1414.6l13.1,13.1l-13.1,13.1l-13.1-13.1L319.2-1414.6z M327.1-1401.5l-7.8-7.8l-7.8,7.8l7.8,7.8
			L327.1-1401.5z"/>
	</g>
	<g>
		<g>
			
				<rect x="308.8" y="-1503" transform="matrix(0.7071 0.7071 -0.7071 0.7071 -967.9484 -665.4095)" fill="#1A1A1A" width="20.9" height="3.7"/>
		</g>
		<g>
			
				<rect x="308.8" y="-1503" transform="matrix(0.7071 0.7071 -0.7071 0.7071 -967.9484 -665.4095)" fill="#1A1A1A" width="20.9" height="3.7"/>
		</g>
		<g>
			
				<rect x="308.8" y="-1503" transform="matrix(0.7071 0.7071 -0.7071 0.7071 -967.9484 -665.4095)" fill="#1A1A1A" width="20.9" height="3.7"/>
		</g>
		<g>
			
				<rect x="317.4" y="-1511.6" transform="matrix(0.7071 0.7071 -0.7071 0.7071 -967.9484 -665.4095)" fill="#1A1A1A" width="3.7" height="20.9"/>
		</g>
		<g>
			
				<rect x="317.4" y="-1511.6" transform="matrix(0.7071 0.7071 -0.7071 0.7071 -967.9484 -665.4095)" fill="#1A1A1A" width="3.7" height="20.9"/>
		</g>
		<g>
			
				<rect x="317.4" y="-1511.6" transform="matrix(0.7071 0.7071 -0.7071 0.7071 -967.9484 -665.4095)" fill="#1A1A1A" width="3.7" height="20.9"/>
		</g>
	</g>
	<polygon fill="#1A1A1A" points="443.3,-1495.3 443.3,-1510.4 439.9,-1510.4 439.9,-1491.9 458.3,-1491.9 458.3,-1495.3 	"/>
	<g>
		
			<rect x="-204.8" y="-1001.7" transform="matrix(-0.7071 0.7071 -0.7071 -0.7071 -1038.8158 -1569.4628)" fill="#1A1A1A" width="20.9" height="3.7"/>
	</g>
	<g>
		<g>
			<rect x="62.2" y="-1008.9" fill="#1A1A1A" width="3.2" height="18"/>
		</g>
		<g>
			<rect x="54.8" y="-1001.5" fill="#1A1A1A" width="18" height="3.2"/>
		</g>
	</g>
	<g>
		<path fill="#1A1A1A" d="M74.2-1188.7H53.5l9.9-20.7L74.2-1188.7z M59.3-1192.4h8.8l-4.6-8.8L59.3-1192.4z"/>
	</g>
	<g>
		<path fill="#1A1A1A" d="M-194.4-1189.8c-5.1,0-9.2-4.1-9.2-9.2c0-5.1,4.1-9.2,9.2-9.2s9.2,4.1,9.2,9.2
			C-185.1-1194-189.3-1189.8-194.4-1189.8z M-194.4-1204.6c-3.1,0-5.5,2.5-5.5,5.5c0,3.1,2.5,5.5,5.5,5.5c3.1,0,5.5-2.5,5.5-5.5
			C-188.8-1202.1-191.3-1204.6-194.4-1204.6z"/>
	</g>
	<path fill="#1A1A1A" d="M63.8-1099.5"/>
	<path fill="#1A1A1A" d="M-188.9-1097.1c-1,1.2-2.5,2-4.2,2c-3.1,0-5.5-2.5-5.5-5.5c0-1.7,0.8-3.2,2-4.2l-2.6-2.6
		c-1.9,1.7-3.1,4.1-3.1,6.8c0,5.1,4.1,9.2,9.2,9.2c2.7,0,5.1-1.2,6.8-3.1L-188.9-1097.1z"/>
	<g>
		<path fill="#1A1A1A" d="M-56.8-1189.8h-18.5v-18.5h18.5V-1189.8z M-71.6-1193.5h11.1v-11.1h-11.1V-1193.5z"/>
	</g>
	<g>
		<path fill="#1A1A1A" d="M-66-1012.9l13.1,13.1L-66-986.8l-13.1-13.1L-66-1012.9z M-58.2-999.9l-7.8-7.8l-7.8,7.8l7.8,7.8
			L-58.2-999.9z"/>
	</g>
	<g>
		<g>
			
				<rect x="-76.5" y="-1101.3" transform="matrix(0.7071 0.7071 -0.7071 0.7071 -796.781 -275.3356)" fill="#1A1A1A" width="20.9" height="3.7"/>
		</g>
		<g>
			
				<rect x="-76.5" y="-1101.3" transform="matrix(0.7071 0.7071 -0.7071 0.7071 -796.781 -275.3356)" fill="#1A1A1A" width="20.9" height="3.7"/>
		</g>
		<g>
			
				<rect x="-76.5" y="-1101.3" transform="matrix(0.7071 0.7071 -0.7071 0.7071 -796.781 -275.3356)" fill="#1A1A1A" width="20.9" height="3.7"/>
		</g>
		<g>
			
				<rect x="-67.9" y="-1109.9" transform="matrix(0.7071 0.7071 -0.7071 0.7071 -796.781 -275.3356)" fill="#1A1A1A" width="3.7" height="20.9"/>
		</g>
		<g>
			
				<rect x="-67.9" y="-1109.9" transform="matrix(0.7071 0.7071 -0.7071 0.7071 -796.781 -275.3356)" fill="#1A1A1A" width="3.7" height="20.9"/>
		</g>
		<g>
			
				<rect x="-67.9" y="-1109.9" transform="matrix(0.7071 0.7071 -0.7071 0.7071 -796.781 -275.3356)" fill="#1A1A1A" width="3.7" height="20.9"/>
		</g>
	</g>
	<polygon fill="#1A1A1A" points="58,-1093.7 58,-1108.7 54.6,-1108.7 54.6,-1090.2 73.1,-1090.2 73.1,-1093.7 	"/>
</g>
<g>
	<g>
		<path fill="#4656A6" d="M1312.6-1143.2c0-25-20.1-45.2-44.9-45.6v0h-18.5c-0.8,0-1.5,0.7-1.5,1.5v17.3c0,0.8-0.7,1.5-1.5,1.5H1228
			c-0.8,0-1.5,0.7-1.5,1.5v2.7v41.9v23.1c0,0.8,0.7,1.5,1.5,1.5h39l0,0l0,0h0.6v0C1292.5-1097.9,1312.6-1118.2,1312.6-1143.2z"/>
		<g>
			<path fill="#4656A6" d="M1167.8-1098.1c-24.3,0-44.1-20.2-44.1-45.1s19.8-45.1,44.1-45.1s44.1,20.2,44.1,45.1
				S1192.1-1098.1,1167.8-1098.1z M1167.8-1179.2c-19.3,0-35,16.1-35,36s15.7,36,35,36s35-16.1,35-36S1187.1-1179.2,1167.8-1179.2z"
				/>
		</g>
		<path fill="#4656A6" d="M1167.8-1082.4c0-0.9-0.7-1.6-1.6-1.5c-23.8,0.9-42.8,20.9-42.8,45.4c0,25.1,19.9,45.5,44.4,45.5
			c24,0,43.5-19.5,44.4-43.9c0-0.9-0.7-1.6-1.5-1.6h-41.3c-0.8,0-1.5-0.7-1.5-1.5V-1082.4z"/>
		<path fill="#4656A6" d="M1073.2-1142.5c0-0.4,0.2-0.8,0.4-1.1l15.4-15.4l14.8-14.8c0.6-0.6,0.6-1.6,0-2.2
			c-3.8-3.7-8.2-6.8-13.1-8.9c-5.4-2.4-11.3-3.7-17.5-3.7c-12.3,0-23.4,5.1-31.4,13.3c-8,8.2-13,19.6-13,32.1c0,12.6,5,23.9,13,32.1
			c7.7,7.9,18.2,12.9,29.8,13.3c0.9,0,1.6-0.7,1.6-1.5v-21.2V-1142.5z"/>
		<g>
			<path fill="#4656A6" d="M1087.5-992.8h-41.2c-3.3,0-6-2.7-6-6v-79c0-3.3,2.7-6,6-6h41.2c3.3,0,6,2.7,6,6v79
				C1093.5-995.5,1090.8-992.8,1087.5-992.8z M1049.5-1002h34.7v-72.6h-34.7V-1002z"/>
		</g>
		<g>
			<path fill="#4656A6" d="M1270.9-992.9c-24.5,0-44.5-20.3-44.5-45.2l0-39.7c0-3.3,2.7-5.9,6-5.9h77.1c3.3,0,6,2.7,6,5.9v39.7
				C1315.4-1013.2,1295.4-992.9,1270.9-992.9z M1235.6-1074.6v36.4c0,19.9,15.9,36.1,35.3,36.1c19.5,0,35.3-16.2,35.3-36.1l0-36.4
				H1235.6z"/>
		</g>
		<text transform="matrix(1 0 0 1 1286.6375 -1062.7045)" fill="#4656A6" font-family="'GothamBlack'" font-size="9.8635">TM</text>
	</g>
	<g>
		
			<rect x="648" y="-1302" transform="matrix(-0.7071 0.7071 -0.7071 -0.7071 204.7886 -2685.0605)" fill="#4656A6" width="20.9" height="3.7"/>
	</g>
	<g>
		<g>
			<rect x="915.1" y="-1309.1" fill="#4656A6" width="3.2" height="18"/>
		</g>
		<g>
			<rect x="907.7" y="-1301.7" fill="#4656A6" width="18" height="3.2"/>
		</g>
	</g>
	<g>
		<path fill="#4656A6" d="M927.1-1488.9h-20.8l9.9-20.7L927.1-1488.9z M912.2-1492.6h8.8l-4.6-8.8L912.2-1492.6z"/>
	</g>
	<g>
		<path fill="#4656A6" d="M658.5-1490.1c-5.1,0-9.2-4.1-9.2-9.2s4.1-9.2,9.2-9.2c5.1,0,9.2,4.1,9.2,9.2S663.6-1490.1,658.5-1490.1z
			 M658.5-1504.9c-3.1,0-5.5,2.5-5.5,5.5s2.5,5.5,5.5,5.5c3.1,0,5.5-2.5,5.5-5.5S661.5-1504.9,658.5-1504.9z"/>
	</g>
	<path fill="#4656A6" d="M916.7-1399.7"/>
	<path fill="#4656A6" d="M663.9-1397.3c-1,1.2-2.5,2-4.2,2c-3.1,0-5.5-2.5-5.5-5.5c0-1.7,0.8-3.2,2-4.2l-2.6-2.6
		c-1.9,1.7-3.1,4.1-3.1,6.8c0,5.1,4.1,9.2,9.2,9.2c2.7,0,5.1-1.2,6.8-3.1L663.9-1397.3z"/>
	<g>
		<path fill="#4656A6" d="M796.1-1490.1h-18.5v-18.5h18.5V-1490.1z M781.3-1493.8h11.1v-11.1h-11.1V-1493.8z"/>
	</g>
	<g>
		<path fill="#4656A6" d="M786.8-1313.2l13.1,13.1l-13.1,13.1l-13.1-13.1L786.8-1313.2z M794.7-1300.1l-7.8-7.8l-7.8,7.8l7.8,7.8
			L794.7-1300.1z"/>
	</g>
	<g>
		<g>
			
				<rect x="776.4" y="-1401.6" transform="matrix(0.7071 0.7071 -0.7071 0.7071 -759.2888 -966.3298)" fill="#4656A6" width="20.9" height="3.7"/>
		</g>
		<g>
			
				<rect x="776.4" y="-1401.6" transform="matrix(0.7071 0.7071 -0.7071 0.7071 -759.2888 -966.3298)" fill="#4656A6" width="20.9" height="3.7"/>
		</g>
		<g>
			
				<rect x="776.4" y="-1401.6" transform="matrix(0.7071 0.7071 -0.7071 0.7071 -759.2888 -966.3298)" fill="#4656A6" width="20.9" height="3.7"/>
		</g>
		<g>
			
				<rect x="785" y="-1410.2" transform="matrix(0.7071 0.7071 -0.7071 0.7071 -759.2888 -966.3298)" fill="#4656A6" width="3.7" height="20.9"/>
		</g>
		<g>
			
				<rect x="785" y="-1410.2" transform="matrix(0.7071 0.7071 -0.7071 0.7071 -759.2888 -966.3298)" fill="#4656A6" width="3.7" height="20.9"/>
		</g>
		<g>
			
				<rect x="785" y="-1410.2" transform="matrix(0.7071 0.7071 -0.7071 0.7071 -759.2888 -966.3298)" fill="#4656A6" width="3.7" height="20.9"/>
		</g>
	</g>
	<polygon fill="#4656A6" points="910.8,-1393.9 910.8,-1408.9 907.4,-1408.9 907.4,-1390.5 925.9,-1390.5 925.9,-1393.9 	"/>
	<g>
		
			<rect x="1033.3" y="-1403.4" transform="matrix(-0.7071 0.7071 -0.7071 -0.7071 790.7871 -3130.6174)" fill="#4656A6" width="20.9" height="3.7"/>
	</g>
	<g>
		<g>
			<rect x="1300.4" y="-1410.5" fill="#4656A6" width="3.2" height="18"/>
		</g>
		<g>
			<rect x="1293" y="-1403.1" fill="#4656A6" width="18" height="3.2"/>
		</g>
	</g>
	<g>
		<path fill="#4656A6" d="M1312.3-1290.1h-20.8l9.9-20.7L1312.3-1290.1z M1297.4-1293.8h8.8l-4.6-8.8L1297.4-1293.8z"/>
	</g>
	<g>
		<path fill="#4656A6" d="M1043.8-1291.3c-5.1,0-9.2-4.1-9.2-9.2c0-5.1,4.1-9.2,9.2-9.2c5.1,0,9.2,4.1,9.2,9.2
			C1053-1295.4,1048.9-1291.3,1043.8-1291.3z M1043.8-1306c-3.1,0-5.5,2.5-5.5,5.5c0,3.1,2.5,5.5,5.5,5.5c3.1,0,5.5-2.5,5.5-5.5
			C1049.3-1303.5,1046.8-1306,1043.8-1306z"/>
	</g>
	<path fill="#4656A6" d="M1302-1501.1"/>
	<path fill="#4656A6" d="M1049.2-1498.8c-1,1.2-2.5,2-4.2,2c-3.1,0-5.5-2.5-5.5-5.5c0-1.7,0.8-3.2,2-4.2l-2.6-2.6
		c-1.9,1.7-3.1,4.1-3.1,6.8c0,5.1,4.1,9.2,9.2,9.2c2.7,0,5.1-1.2,6.8-3.1L1049.2-1498.8z"/>
	<g>
		<path fill="#4656A6" d="M1181.3-1291.3h-18.5v-18.5h18.5V-1291.3z M1166.6-1294.9h11.1v-11.1h-11.1V-1294.9z"/>
	</g>
	<g>
		<path fill="#4656A6" d="M1172.1-1414.6l13.1,13.1l-13.1,13.1l-13.1-13.1L1172.1-1414.6z M1179.9-1401.5l-7.8-7.8l-7.8,7.8l7.8,7.8
			L1179.9-1401.5z"/>
	</g>
	<g>
		<g>
			
				<rect x="1161.7" y="-1503" transform="matrix(0.7071 0.7071 -0.7071 0.7071 -718.1543 -1268.4656)" fill="#4656A6" width="20.9" height="3.7"/>
		</g>
		<g>
			
				<rect x="1161.7" y="-1503" transform="matrix(0.7071 0.7071 -0.7071 0.7071 -718.1543 -1268.4656)" fill="#4656A6" width="20.9" height="3.7"/>
		</g>
		<g>
			
				<rect x="1161.7" y="-1503" transform="matrix(0.7071 0.7071 -0.7071 0.7071 -718.1543 -1268.4656)" fill="#4656A6" width="20.9" height="3.7"/>
		</g>
		<g>
			
				<rect x="1170.2" y="-1511.6" transform="matrix(0.7071 0.7071 -0.7071 0.7071 -718.1543 -1268.4656)" fill="#4656A6" width="3.7" height="20.9"/>
		</g>
		<g>
			
				<rect x="1170.2" y="-1511.6" transform="matrix(0.7071 0.7071 -0.7071 0.7071 -718.1543 -1268.4656)" fill="#4656A6" width="3.7" height="20.9"/>
		</g>
		<g>
			
				<rect x="1170.2" y="-1511.6" transform="matrix(0.7071 0.7071 -0.7071 0.7071 -718.1543 -1268.4656)" fill="#4656A6" width="3.7" height="20.9"/>
		</g>
	</g>
	<polygon fill="#4656A6" points="1296.1,-1495.3 1296.1,-1510.4 1292.7,-1510.4 1292.7,-1491.9 1311.2,-1491.9 1311.2,-1495.3 	"/>
	<g>
		
			<rect x="648" y="-1001.7" transform="matrix(-0.7071 0.7071 -0.7071 -0.7071 417.0904 -2172.5188)" fill="#4656A6" width="20.9" height="3.7"/>
	</g>
	<g>
		<g>
			<rect x="915.1" y="-1008.9" fill="#4656A6" width="3.2" height="18"/>
		</g>
		<g>
			<rect x="907.7" y="-1001.5" fill="#4656A6" width="18" height="3.2"/>
		</g>
	</g>
	<g>
		<path fill="#4656A6" d="M927.1-1188.7h-20.8l9.9-20.7L927.1-1188.7z M912.2-1192.4h8.8l-4.6-8.8L912.2-1192.4z"/>
	</g>
	<g>
		<path fill="#4656A6" d="M658.5-1189.8c-5.1,0-9.2-4.1-9.2-9.2s4.1-9.2,9.2-9.2c5.1,0,9.2,4.1,9.2,9.2S663.6-1189.8,658.5-1189.8z
			 M658.5-1204.6c-3.1,0-5.5,2.5-5.5,5.5c0,3.1,2.5,5.5,5.5,5.5c3.1,0,5.5-2.5,5.5-5.5C664-1202.1,661.5-1204.6,658.5-1204.6z"/>
	</g>
	<path fill="#4656A6" d="M916.7-1099.5"/>
	<path fill="#4656A6" d="M663.9-1097.1c-1,1.2-2.5,2-4.2,2c-3.1,0-5.5-2.5-5.5-5.5c0-1.7,0.8-3.2,2-4.2l-2.6-2.6
		c-1.9,1.7-3.1,4.1-3.1,6.8c0,5.1,4.1,9.2,9.2,9.2c2.7,0,5.1-1.2,6.8-3.1L663.9-1097.1z"/>
	<g>
		<path fill="#4656A6" d="M796.1-1189.8h-18.5v-18.5h18.5V-1189.8z M781.3-1193.5h11.1v-11.1h-11.1V-1193.5z"/>
	</g>
	<g>
		<path fill="#4656A6" d="M786.8-1012.9l13.1,13.1l-13.1,13.1l-13.1-13.1L786.8-1012.9z M794.7-999.9l-7.8-7.8l-7.8,7.8l7.8,7.8
			L794.7-999.9z"/>
	</g>
	<g>
		<g>
			
				<rect x="776.4" y="-1101.3" transform="matrix(0.7071 0.7071 -0.7071 0.7071 -546.9871 -878.3916)" fill="#4656A6" width="20.9" height="3.7"/>
		</g>
		<g>
			
				<rect x="776.4" y="-1101.3" transform="matrix(0.7071 0.7071 -0.7071 0.7071 -546.9871 -878.3916)" fill="#4656A6" width="20.9" height="3.7"/>
		</g>
		<g>
			
				<rect x="776.4" y="-1101.3" transform="matrix(0.7071 0.7071 -0.7071 0.7071 -546.9871 -878.3916)" fill="#4656A6" width="20.9" height="3.7"/>
		</g>
		<g>
			
				<rect x="785" y="-1109.9" transform="matrix(0.7071 0.7071 -0.7071 0.7071 -546.9871 -878.3916)" fill="#4656A6" width="3.7" height="20.9"/>
		</g>
		<g>
			
				<rect x="785" y="-1109.9" transform="matrix(0.7071 0.7071 -0.7071 0.7071 -546.9871 -878.3916)" fill="#4656A6" width="3.7" height="20.9"/>
		</g>
		<g>
			
				<rect x="785" y="-1109.9" transform="matrix(0.7071 0.7071 -0.7071 0.7071 -546.9871 -878.3916)" fill="#4656A6" width="3.7" height="20.9"/>
		</g>
	</g>
	<polygon fill="#4656A6" points="910.8,-1093.7 910.8,-1108.7 907.4,-1108.7 907.4,-1090.2 925.9,-1090.2 925.9,-1093.7 	"/>
</g>
<g>
	<rect x="580.8" y="-911.1" fill="#4656A6" width="800" height="600"/>
	<g>
		<g>
			<path fill="#FFFFFF" d="M1312.6-505.7c0-25-20.1-45.2-44.9-45.6v0h-18.5c-0.8,0-1.5,0.7-1.5,1.5v17.3c0,0.8-0.7,1.5-1.5,1.5H1228
				c-0.8,0-1.5,0.7-1.5,1.5v2.7v41.9v23.1c0,0.8,0.7,1.5,1.5,1.5h39l0,0l0,0h0.6v0C1292.5-460.4,1312.6-480.7,1312.6-505.7z"/>
			<g>
				<path fill="#FFFFFF" d="M1167.8-460.6c-24.3,0-44.1-20.2-44.1-45.1s19.8-45.1,44.1-45.1s44.1,20.2,44.1,45.1
					S1192.1-460.6,1167.8-460.6z M1167.8-541.7c-19.3,0-35,16.1-35,36s15.7,36,35,36s35-16.1,35-36S1187.1-541.7,1167.8-541.7z"/>
			</g>
			<path fill="#FFFFFF" d="M1167.8-444.9c0-0.9-0.7-1.6-1.6-1.5c-23.8,0.9-42.8,20.9-42.8,45.4c0,25.1,19.9,45.5,44.4,45.5
				c24,0,43.5-19.5,44.4-43.9c0-0.9-0.7-1.6-1.5-1.6h-41.3c-0.8,0-1.5-0.7-1.5-1.5V-444.9z"/>
			<path fill="#FFFFFF" d="M1073.2-505.1c0-0.4,0.2-0.8,0.4-1.1l15.4-15.4l14.8-14.8c0.6-0.6,0.6-1.6,0-2.2
				c-3.8-3.7-8.2-6.8-13.1-8.9c-5.4-2.4-11.3-3.7-17.5-3.7c-12.3,0-23.4,5.1-31.4,13.3c-8,8.2-13,19.6-13,32.1
				c0,12.6,5,23.9,13,32.1c7.7,7.9,18.2,12.9,29.8,13.3c0.9,0,1.6-0.7,1.6-1.5V-483V-505.1z"/>
			<g>
				<path fill="#FFFFFF" d="M1087.5-355.3h-41.2c-3.3,0-6-2.7-6-6v-79c0-3.3,2.7-6,6-6h41.2c3.3,0,6,2.7,6,6v79
					C1093.5-358,1090.8-355.3,1087.5-355.3z M1049.5-364.5h34.7v-72.6h-34.7V-364.5z"/>
			</g>
			<g>
				<path fill="#FFFFFF" d="M1270.9-355.4c-24.5,0-44.5-20.3-44.5-45.2l0-39.7c0-3.3,2.7-5.9,6-5.9h77.1c3.3,0,6,2.7,6,5.9v39.7
					C1315.4-375.7,1295.4-355.4,1270.9-355.4z M1235.6-437.1v36.4c0,19.9,15.9,36.1,35.3,36.1c19.5,0,35.3-16.2,35.3-36.1l0-36.4
					H1235.6z"/>
			</g>
			<text transform="matrix(1 0 0 1 1286.6375 -425.2345)" fill="#FFFFFF" font-family="'GothamBlack'" font-size="9.8635">TM</text>
		</g>
		<g>
			
				<rect x="648" y="-664.5" transform="matrix(-0.7071 0.7071 -0.7071 -0.7071 655.548 -1596.8312)" fill="#FFFFFF" width="20.9" height="3.7"/>
		</g>
		<g>
			<g>
				<rect x="915.1" y="-671.6" fill="#FFFFFF" width="3.2" height="18"/>
			</g>
			<g>
				<rect x="907.7" y="-664.2" fill="#FFFFFF" width="18" height="3.2"/>
			</g>
		</g>
		<g>
			<path fill="#FFFFFF" d="M927.1-851.5h-20.8l9.9-20.7L927.1-851.5z M912.2-855.2h8.8l-4.6-8.8L912.2-855.2z"/>
		</g>
		<g>
			<path fill="#FFFFFF" d="M658.5-852.6c-5.1,0-9.2-4.1-9.2-9.2c0-5.1,4.1-9.2,9.2-9.2c5.1,0,9.2,4.1,9.2,9.2
				C667.7-856.8,663.6-852.6,658.5-852.6z M658.5-867.4c-3.1,0-5.5,2.5-5.5,5.5c0,3.1,2.5,5.5,5.5,5.5c3.1,0,5.5-2.5,5.5-5.5
				C664-864.9,661.5-867.4,658.5-867.4z"/>
		</g>
		<path fill="#FFFFFF" d="M916.7-762.2"/>
		<path fill="#FFFFFF" d="M663.9-759.9c-1,1.2-2.5,2-4.2,2c-3.1,0-5.5-2.5-5.5-5.5c0-1.7,0.8-3.2,2-4.2l-2.6-2.6
			c-1.9,1.7-3.1,4.1-3.1,6.8c0,5.1,4.1,9.2,9.2,9.2c2.7,0,5.1-1.2,6.8-3.1L663.9-759.9z"/>
		<g>
			<path fill="#FFFFFF" d="M796.1-852.6h-18.5v-18.5h18.5V-852.6z M781.3-856.3h11.1v-11.1h-11.1V-856.3z"/>
		</g>
		<g>
			<path fill="#FFFFFF" d="M786.8-675.7l13.1,13.1l-13.1,13.1l-13.1-13.1L786.8-675.7z M794.7-662.6l-7.8-7.8l-7.8,7.8l7.8,7.8
				L794.7-662.6z"/>
		</g>
		<g>
			<g>
				
					<rect x="776.4" y="-764.1" transform="matrix(0.7071 0.7071 -0.7071 0.7071 -308.5294 -779.6192)" fill="#FFFFFF" width="20.9" height="3.7"/>
			</g>
			<g>
				
					<rect x="776.4" y="-764.1" transform="matrix(0.7071 0.7071 -0.7071 0.7071 -308.5294 -779.6192)" fill="#FFFFFF" width="20.9" height="3.7"/>
			</g>
			<g>
				
					<rect x="776.4" y="-764.1" transform="matrix(0.7071 0.7071 -0.7071 0.7071 -308.5294 -779.6192)" fill="#FFFFFF" width="20.9" height="3.7"/>
			</g>
			<g>
				
					<rect x="785" y="-772.7" transform="matrix(0.7071 0.7071 -0.7071 0.7071 -308.5294 -779.6192)" fill="#FFFFFF" width="3.7" height="20.9"/>
			</g>
			<g>
				
					<rect x="785" y="-772.7" transform="matrix(0.7071 0.7071 -0.7071 0.7071 -308.5294 -779.6192)" fill="#FFFFFF" width="3.7" height="20.9"/>
			</g>
			<g>
				
					<rect x="785" y="-772.7" transform="matrix(0.7071 0.7071 -0.7071 0.7071 -308.5294 -779.6192)" fill="#FFFFFF" width="3.7" height="20.9"/>
			</g>
		</g>
		<polygon fill="#FFFFFF" points="910.8,-756.4 910.8,-771.5 907.4,-771.5 907.4,-753 925.9,-753 925.9,-756.4 		"/>
		<g>
			
				<rect x="1033.3" y="-765.9" transform="matrix(-0.7071 0.7071 -0.7071 -0.7071 1241.5465 -2042.3881)" fill="#FFFFFF" width="20.9" height="3.7"/>
		</g>
		<g>
			<g>
				<rect x="1300.4" y="-773.1" fill="#FFFFFF" width="3.2" height="18"/>
			</g>
			<g>
				<rect x="1293" y="-765.7" fill="#FFFFFF" width="18" height="3.2"/>
			</g>
		</g>
		<g>
			<path fill="#FFFFFF" d="M1312.3-652.6h-20.8l9.9-20.7L1312.3-652.6z M1297.4-656.3h8.8l-4.6-8.8L1297.4-656.3z"/>
		</g>
		<g>
			<path fill="#FFFFFF" d="M1043.8-653.8c-5.1,0-9.2-4.1-9.2-9.2c0-5.1,4.1-9.2,9.2-9.2c5.1,0,9.2,4.1,9.2,9.2
				C1053-657.9,1048.9-653.8,1043.8-653.8z M1043.8-668.6c-3.1,0-5.5,2.5-5.5,5.5c0,3.1,2.5,5.5,5.5,5.5c3.1,0,5.5-2.5,5.5-5.5
				C1049.3-666.1,1046.8-668.6,1043.8-668.6z"/>
		</g>
		<path fill="#FFFFFF" d="M1302-863.7"/>
		<path fill="#FFFFFF" d="M1049.2-861.3c-1,1.2-2.5,2-4.2,2c-3.1,0-5.5-2.5-5.5-5.5c0-1.7,0.8-3.2,2-4.2l-2.6-2.6
			c-1.9,1.7-3.1,4.1-3.1,6.8c0,5.1,4.1,9.2,9.2,9.2c2.7,0,5.1-1.2,6.8-3.1L1049.2-861.3z"/>
		<g>
			<path fill="#FFFFFF" d="M1181.3-653.8h-18.5v-18.5h18.5V-653.8z M1166.6-657.5h11.1v-11.1h-11.1V-657.5z"/>
		</g>
		<g>
			<path fill="#FFFFFF" d="M1172.1-777.1l13.1,13.1l-13.1,13.1l-13.1-13.1L1172.1-777.1z M1179.9-764.1l-7.8-7.8l-7.8,7.8l7.8,7.8
				L1179.9-764.1z"/>
		</g>
		<g>
			<g>
				
					<rect x="1161.7" y="-865.5" transform="matrix(0.7071 0.7071 -0.7071 0.7071 -267.3949 -1081.755)" fill="#FFFFFF" width="20.9" height="3.7"/>
			</g>
			<g>
				
					<rect x="1161.7" y="-865.5" transform="matrix(0.7071 0.7071 -0.7071 0.7071 -267.3949 -1081.755)" fill="#FFFFFF" width="20.9" height="3.7"/>
			</g>
			<g>
				
					<rect x="1161.7" y="-865.5" transform="matrix(0.7071 0.7071 -0.7071 0.7071 -267.3949 -1081.755)" fill="#FFFFFF" width="20.9" height="3.7"/>
			</g>
			<g>
				
					<rect x="1170.2" y="-874.1" transform="matrix(0.7071 0.7071 -0.7071 0.7071 -267.3949 -1081.755)" fill="#FFFFFF" width="3.7" height="20.9"/>
			</g>
			<g>
				
					<rect x="1170.2" y="-874.1" transform="matrix(0.7071 0.7071 -0.7071 0.7071 -267.3949 -1081.755)" fill="#FFFFFF" width="3.7" height="20.9"/>
			</g>
			<g>
				
					<rect x="1170.2" y="-874.1" transform="matrix(0.7071 0.7071 -0.7071 0.7071 -267.3949 -1081.755)" fill="#FFFFFF" width="3.7" height="20.9"/>
			</g>
		</g>
		<polygon fill="#FFFFFF" points="1296.1,-857.9 1296.1,-872.9 1292.7,-872.9 1292.7,-854.4 1311.2,-854.4 1311.2,-857.9 		"/>
		<g>
			
				<rect x="648" y="-364.3" transform="matrix(-0.7071 0.7071 -0.7071 -0.7071 867.8498 -1084.2894)" fill="#FFFFFF" width="20.9" height="3.7"/>
		</g>
		<g>
			<g>
				<rect x="915.1" y="-371.4" fill="#FFFFFF" width="3.2" height="18"/>
			</g>
			<g>
				<rect x="907.7" y="-364" fill="#FFFFFF" width="18" height="3.2"/>
			</g>
		</g>
		<g>
			<path fill="#FFFFFF" d="M927.1-551.2h-20.8l9.9-20.7L927.1-551.2z M912.2-554.9h8.8l-4.6-8.8L912.2-554.9z"/>
		</g>
		<g>
			<path fill="#FFFFFF" d="M658.5-552.4c-5.1,0-9.2-4.1-9.2-9.2c0-5.1,4.1-9.2,9.2-9.2c5.1,0,9.2,4.1,9.2,9.2
				C667.7-556.5,663.6-552.4,658.5-552.4z M658.5-567.1c-3.1,0-5.5,2.5-5.5,5.5s2.5,5.5,5.5,5.5c3.1,0,5.5-2.5,5.5-5.5
				S661.5-567.1,658.5-567.1z"/>
		</g>
		<path fill="#FFFFFF" d="M916.7-462"/>
		<path fill="#FFFFFF" d="M663.9-459.6c-1,1.2-2.5,2-4.2,2c-3.1,0-5.5-2.5-5.5-5.5c0-1.7,0.8-3.2,2-4.2l-2.6-2.6
			c-1.9,1.7-3.1,4.1-3.1,6.8c0,5.1,4.1,9.2,9.2,9.2c2.7,0,5.1-1.2,6.8-3.1L663.9-459.6z"/>
		<g>
			<path fill="#FFFFFF" d="M796.1-552.4h-18.5v-18.5h18.5V-552.4z M781.3-556.1h11.1v-11.1h-11.1V-556.1z"/>
		</g>
		<g>
			<path fill="#FFFFFF" d="M786.8-375.5l13.1,13.1l-13.1,13.1l-13.1-13.1L786.8-375.5z M794.7-362.4l-7.8-7.8l-7.8,7.8l7.8,7.8
				L794.7-362.4z"/>
		</g>
		<g>
			<g>
				
					<rect x="776.4" y="-463.8" transform="matrix(0.7071 0.7071 -0.7071 0.7071 -96.2276 -691.681)" fill="#FFFFFF" width="20.9" height="3.7"/>
			</g>
			<g>
				
					<rect x="776.4" y="-463.8" transform="matrix(0.7071 0.7071 -0.7071 0.7071 -96.2276 -691.681)" fill="#FFFFFF" width="20.9" height="3.7"/>
			</g>
			<g>
				
					<rect x="776.4" y="-463.8" transform="matrix(0.7071 0.7071 -0.7071 0.7071 -96.2276 -691.681)" fill="#FFFFFF" width="20.9" height="3.7"/>
			</g>
			<g>
				
					<rect x="785" y="-472.4" transform="matrix(0.7071 0.7071 -0.7071 0.7071 -96.2276 -691.681)" fill="#FFFFFF" width="3.7" height="20.9"/>
			</g>
			<g>
				
					<rect x="785" y="-472.4" transform="matrix(0.7071 0.7071 -0.7071 0.7071 -96.2276 -691.681)" fill="#FFFFFF" width="3.7" height="20.9"/>
			</g>
			<g>
				
					<rect x="785" y="-472.4" transform="matrix(0.7071 0.7071 -0.7071 0.7071 -96.2276 -691.681)" fill="#FFFFFF" width="3.7" height="20.9"/>
			</g>
		</g>
		<polygon fill="#FFFFFF" points="910.8,-456.2 910.8,-471.2 907.4,-471.2 907.4,-452.8 925.9,-452.8 925.9,-456.2 		"/>
	</g>
</g>
<path fill="#1A1A1A" d="M-1278.1-1351.6c0-49-39.4-88.8-88.2-89.5v0h-36.3c-1.7,0-3,1.3-3,3v34c0,1.7-1.3,3-3,3h-35.5
	c-1.7,0-3,1.3-3,3v5.4v82.3v45.4c0,1.7,1.3,3,3,3h76.5c0,0,0,0,0,0c0,0,0,0,0,0h1.3v0C-1317.5-1262.8-1278.1-1302.6-1278.1-1351.6z"
	/>
<ellipse fill="#1A1A1A" cx="-1562.3" cy="-1351.6" rx="87.1" ry="89.2"/>
<path fill="#1A1A1A" d="M-1562.3-1231.9c0-1.7-1.4-3.1-3.1-3c-46.7,1.7-84,41-84,89.2c0,49.3,39,89.2,87.1,89.2
	c47.1,0,85.4-38.3,87-86.1c0.1-1.7-1.3-3.1-3-3.1h-81c-1.7,0-3-1.3-3-3V-1231.9z"/>
<path fill="#1A1A1A" d="M-1747.9-1350.4c0-0.8,0.3-1.6,0.9-2.1l30.3-30.3l29-29c1.2-1.2,1.2-3.1,0-4.3c-7.5-7.3-16.2-13.3-25.8-17.5
	c-10.5-4.7-22.2-7.2-34.4-7.2c-24.1,0-45.8,10-61.6,26.1c-15.8,16.1-25.5,38.4-25.5,63.1c0,24.6,9.7,46.9,25.5,63.1
	c15.1,15.4,35.7,25.3,58.5,26.1c1.7,0.1,3.1-1.3,3.1-3v-41.5V-1350.4z"/>
<path fill="#1A1A1A" d="M-1715.5-1056.8h-89.6c-1.7,0-3-1.3-3-3v-171.9c0-1.7,1.3-3,3-3h89.6c1.7,0,3,1.3,3,3v171.9
	C-1712.5-1058.2-1713.9-1056.8-1715.5-1056.8z"/>
<path fill="#875152" d="M-2569.3-1019.8c0,0.2,0,0.3,0,0.5h19.5c0-0.1,0-0.1,0-0.2L-2569.3-1019.8z"/>
<path fill="#1A1A1A" d="M-1275.9-1235h-168.2c-1.7,0-3,1.3-3,3v86.6h0c0,49,39,88.8,87.1,88.8s87.1-39.8,87.1-88.8h0v-86.6
	C-1272.9-1233.6-1274.3-1235-1275.9-1235z"/>
<text transform="matrix(1 0 0 1 -1311.0941 -1211.3828)" fill="#FFFFFF" font-family="'GothamBlack'" font-size="19.3564">TM</text>
<g>
	<rect x="-1112.1" y="-1548.6" fill="#1A1A1A" width="800" height="600"/>
	<path fill="#FFFFFF" d="M-436.1-1351.6c0-49-39.4-88.8-88.2-89.5v0h-36.3c-1.7,0-3,1.3-3,3v34c0,1.7-1.3,3-3,3h-35.5
		c-1.7,0-3,1.3-3,3v5.4v82.3v45.4c0,1.7,1.3,3,3,3h76.5c0,0,0,0,0,0c0,0,0,0,0,0h1.3v0C-475.5-1262.8-436.1-1302.6-436.1-1351.6z"/>
	<ellipse fill="#FFFFFF" cx="-720.3" cy="-1351.6" rx="87.1" ry="89.2"/>
	<path fill="#FFFFFF" d="M-720.3-1231.9c0-1.7-1.4-3.1-3.1-3c-46.7,1.7-84,41-84,89.2c0,49.3,39,89.2,87.1,89.2
		c47.1,0,85.4-38.3,87-86.1c0.1-1.7-1.3-3.1-3-3.1h-81c-1.7,0-3-1.3-3-3V-1231.9z"/>
	<path fill="#FFFFFF" d="M-905.9-1350.4c0-0.8,0.3-1.6,0.9-2.1l30.3-30.3l29-29c1.2-1.2,1.2-3.1,0-4.3c-7.5-7.3-16.2-13.3-25.8-17.5
		c-10.5-4.7-22.2-7.2-34.4-7.2c-24.1,0-45.8,10-61.6,26.1c-15.8,16.1-25.5,38.4-25.5,63.1c0,24.6,9.7,46.9,25.5,63.1
		c15.1,15.4,35.7,25.3,58.5,26.1c1.7,0.1,3.1-1.3,3.1-3v-41.5V-1350.4z"/>
	<path fill="#FFFFFF" d="M-873.5-1056.8h-89.6c-1.7,0-3-1.3-3-3v-171.9c0-1.7,1.3-3,3-3h89.6c1.7,0,3,1.3,3,3v171.9
		C-870.5-1058.2-871.9-1056.8-873.5-1056.8z"/>
	<path fill="#FFFFFF" d="M-433.9-1235h-168.2c-1.7,0-3,1.3-3,3v86.6h0c0,49,39,88.8,87.1,88.8c48.1,0,87.1-39.8,87.1-88.8h0v-86.6
		C-430.9-1233.6-432.3-1235-433.9-1235z"/>
	<text transform="matrix(1 0 0 1 -469.0939 -1211.3856)" fill="#1A1A1A" font-family="'GothamBlack'" font-size="19.3564">TM</text>
</g>
<rect x="-2798.2" y="-1551.6" fill="#4656A6" width="800" height="600"/>
<path fill="#FFFFFF" d="M-2122.3-1354.6c0-49-39.4-88.8-88.2-89.5v0h-36.3c-1.7,0-3,1.3-3,3v34c0,1.7-1.3,3-3,3h-35.5
	c-1.7,0-3,1.3-3,3v5.4v82.3v45.4c0,1.7,1.3,3,3,3h76.5c0,0,0,0,0,0c0,0,0,0,0,0h1.3v0C-2161.7-1265.8-2122.3-1305.6-2122.3-1354.6z"
	/>
<ellipse fill="#FFFFFF" cx="-2406.4" cy="-1354.6" rx="87.1" ry="89.2"/>
<path fill="#FFFFFF" d="M-2406.4-1234.9c0-1.7-1.4-3.1-3.1-3c-46.7,1.7-84,41-84,89.2c0,49.3,39,89.2,87.1,89.2
	c47.1,0,85.4-38.3,87-86.1c0.1-1.7-1.3-3.1-3-3.1h-81c-1.7,0-3-1.3-3-3V-1234.9z"/>
<path fill="#FFFFFF" d="M-2592.1-1353.4c0-0.8,0.3-1.6,0.9-2.1l30.3-30.3l29-29c1.2-1.2,1.2-3.1,0-4.3c-7.5-7.3-16.2-13.3-25.8-17.5
	c-10.5-4.7-22.2-7.2-34.4-7.2c-24.1,0-45.8,10-61.6,26.1c-15.8,16.1-25.5,38.4-25.5,63.1s9.7,46.9,25.5,63.1
	c15.1,15.4,35.7,25.3,58.5,26.1c1.7,0.1,3.1-1.3,3.1-3v-41.5V-1353.4z"/>
<path fill="#FFFFFF" d="M-2559.7-1059.8h-89.6c-1.7,0-3-1.3-3-3v-171.9c0-1.7,1.3-3,3-3h89.6c1.7,0,3,1.3,3,3v171.9
	C-2556.7-1061.2-2558-1059.8-2559.7-1059.8z"/>
<path fill="#FFFFFF" d="M-2120.1-1238h-168.2c-1.7,0-3,1.3-3,3v86.6h0c0,49,39,88.8,87.1,88.8s87.1-39.8,87.1-88.8h0v-86.6
	C-2117.1-1236.6-2118.4-1238-2120.1-1238z"/>
<text transform="matrix(1 0 0 1 -2155.2627 -1214.386)" fill="#4656A6" font-family="'GothamBlack'" font-size="19.3564">TM</text>
<g>
	<path fill="#1A1A1A" d="M-1278.1-714.1c0-49-39.4-88.8-88.2-89.5v0h-36.3c-1.7,0-3,1.3-3,3v34c0,1.7-1.3,3-3,3h-35.5
		c-1.7,0-3,1.3-3,3v5.4v82.3v45.4c0,1.7,1.3,3,3,3h76.5c0,0,0,0,0,0c0,0,0,0,0,0h1.3v0C-1317.5-625.3-1278.1-665.1-1278.1-714.1z"/>
	<g>
		<path fill="#1A1A1A" d="M-1562.3-625.6c-47.8,0-86.6-39.7-86.6-88.5c0-48.8,38.8-88.5,86.6-88.5c47.8,0,86.6,39.7,86.6,88.5
			C-1475.7-665.3-1514.5-625.6-1562.3-625.6z M-1562.3-784.8c-37.9,0-68.8,31.7-68.8,70.6c0,39,30.8,70.6,68.8,70.6
			c37.9,0,68.8-31.7,68.8-70.6C-1493.5-753.1-1524.4-784.8-1562.3-784.8z"/>
	</g>
	<path fill="#1A1A1A" d="M-1562.4-594.8c0-1.7-1.4-3.1-3.1-3c-46.7,1.7-84,41-84,89.2c0,49.3,39,89.2,87.1,89.2
		c47.1,0,85.4-38.3,87-86.1c0.1-1.7-1.3-3.1-3-3.1h-81c-1.7,0-3-1.3-3-3V-594.8z"/>
	<path fill="#1A1A1A" d="M-1747.9-712.9c0-0.8,0.3-1.6,0.9-2.1l30.3-30.3l29-29c1.2-1.2,1.2-3.1,0-4.3c-7.5-7.3-16.2-13.3-25.8-17.5
		c-10.5-4.7-22.2-7.2-34.4-7.2c-24.1,0-45.8,10-61.6,26.1c-15.8,16.1-25.5,38.4-25.5,63.1s9.7,46.9,25.5,63.1
		c15.1,15.4,35.7,25.3,58.5,26.1c1.7,0.1,3.1-1.3,3.1-3v-41.5V-712.9z"/>
	<g>
		<path fill="#1A1A1A" d="M-1719.9-419h-80.8c-6.5,0-11.7-5.3-11.7-11.7v-155c0-6.5,5.3-11.7,11.7-11.7h80.8
			c6.5,0,11.7,5.3,11.7,11.7v155C-1708.2-424.3-1713.5-419-1719.9-419z M-1794.4-437.1h68.2v-142.4h-68.2V-437.1z"/>
	</g>
	<g>
		<path fill="#1A1A1A" d="M-1360-419.2c-48.1,0-87.3-39.8-87.3-88.7l0-77.8c0-6.4,5.2-11.7,11.7-11.7h151.2
			c6.4,0,11.7,5.2,11.7,11.7v77.8C-1272.7-459.1-1311.9-419.2-1360-419.2z M-1429.3-579.5v71.5c0,39,31.1,70.8,69.3,70.8
			c38.2,0,69.3-31.7,69.3-70.8l0-71.5H-1429.3z"/>
	</g>
	<text transform="matrix(1 0 0 1 -1329.0941 -556.2433)" fill="#1A1A1A" font-family="'GothamBlack'" font-size="19.3564">TM</text>
</g>
<g>
	<rect x="-1114.1" y="-911.1" fill="#1A1A1A" width="800" height="600"/>
	<path fill="#FFFFFF" d="M-438.1-714.1c0-49-39.4-88.8-88.2-89.5v0h-36.3c-1.7,0-3,1.3-3,3v34c0,1.7-1.3,3-3,3h-35.5
		c-1.7,0-3,1.3-3,3v5.4v82.3v45.4c0,1.7,1.3,3,3,3h76.5c0,0,0,0,0,0c0,0,0,0,0,0h1.3v0C-477.5-625.3-438.1-665.1-438.1-714.1z"/>
	<g>
		<path fill="#FFFFFF" d="M-722.3-625.6c-47.8,0-86.6-39.7-86.6-88.5c0-48.8,38.8-88.5,86.6-88.5s86.6,39.7,86.6,88.5
			C-635.7-665.3-674.5-625.6-722.3-625.6z M-722.3-784.8c-37.9,0-68.8,31.7-68.8,70.6c0,39,30.8,70.6,68.8,70.6s68.8-31.7,68.8-70.6
			C-653.5-753.1-684.4-784.8-722.3-784.8z"/>
	</g>
	<path fill="#FFFFFF" d="M-722.4-594.8c0-1.7-1.4-3.1-3.1-3c-46.7,1.7-84,41-84,89.2c0,49.3,39,89.2,87.1,89.2
		c47.1,0,85.4-38.3,87-86.1c0.1-1.7-1.3-3.1-3-3.1h-81c-1.7,0-3-1.3-3-3V-594.8z"/>
	<path fill="#FFFFFF" d="M-907.9-712.9c0-0.8,0.3-1.6,0.9-2.1l30.3-30.3l29-29c1.2-1.2,1.2-3.1,0-4.3c-7.5-7.3-16.2-13.3-25.8-17.5
		c-10.5-4.7-22.2-7.2-34.4-7.2c-24.1,0-45.8,10-61.6,26.1c-15.8,16.1-25.5,38.4-25.5,63.1c0,24.6,9.7,46.9,25.5,63.1
		c15.1,15.4,35.7,25.3,58.5,26.1c1.7,0.1,3.1-1.3,3.1-3v-41.5V-712.9z"/>
	<g>
		<path fill="#FFFFFF" d="M-879.9-419h-80.8c-6.5,0-11.7-5.3-11.7-11.7v-155c0-6.5,5.3-11.7,11.7-11.7h80.8
			c6.5,0,11.7,5.3,11.7,11.7v155C-868.2-424.3-873.5-419-879.9-419z M-954.4-437.1h68.2v-142.4h-68.2V-437.1z"/>
	</g>
	<g>
		<path fill="#FFFFFF" d="M-520-419.2c-48.1,0-87.3-39.8-87.3-88.7l0-77.8c0-6.4,5.2-11.7,11.7-11.7h151.2c6.4,0,11.7,5.2,11.7,11.7
			v77.8C-432.7-459.1-471.9-419.2-520-419.2z M-589.3-579.5v71.5c0,39,31.1,70.8,69.3,70.8c38.2,0,69.3-31.7,69.3-70.8l0-71.5
			H-589.3z"/>
	</g>
</g>
<text transform="matrix(1 0 0 1 -489.0939 -556.2443)" fill="#FFFFFF" font-family="'GothamBlack'" font-size="19.3564">TM</text>
<g>
	<g>
		<rect x="-1114.1" y="-260.1" fill="#1A1A1A" width="800" height="600"/>
	</g>
	<g>
		<path fill="#FFFFFF" d="M-701,41.2c0-0.8,0.3-1.6,0.9-2.1l30.3-30.3l29-29c1.2-1.2,1.2-3.1,0-4.3c-7.5-7.3-16.2-13.3-25.8-17.5
			c-10.5-4.7-22.2-7.2-34.4-7.2c-24.1,0-45.8,10-61.6,26.1s-25.5,38.4-25.5,63.1c0,24.6,9.7,46.9,25.5,63.1
			c15.1,15.4,35.7,25.3,58.5,26.1c1.7,0.1,3.1-1.3,3.1-3V84.6V41.2z"/>
		<text transform="matrix(1 0 0 1 -669.545 125.7464)" fill="#FFFFFF" font-family="'GothamBlack'" font-size="19.3564">TM</text>
	</g>
</g>
<g>
	<rect x="-2794.2" y="-920.1" fill="#4656A6" width="800" height="600"/>
	<path fill="#FFFFFF" d="M-2118.3-723.1c0-49-39.4-88.8-88.2-89.5v0h-36.3c-1.7,0-3,1.3-3,3v34c0,1.7-1.3,3-3,3h-35.5
		c-1.7,0-3,1.3-3,3v5.4v82.3v45.4c0,1.7,1.3,3,3,3h76.5c0,0,0,0,0,0c0,0,0,0,0,0h1.3v0C-2157.7-634.3-2118.3-674.1-2118.3-723.1z"/>
	<g>
		<path fill="#FFFFFF" d="M-2402.4-634.6c-47.8,0-86.6-39.7-86.6-88.5s38.8-88.5,86.6-88.5c47.8,0,86.6,39.7,86.6,88.5
			S-2354.7-634.6-2402.4-634.6z M-2402.4-793.8c-37.9,0-68.8,31.7-68.8,70.6s30.8,70.6,68.8,70.6s68.8-31.7,68.8-70.6
			S-2364.5-793.8-2402.4-793.8z"/>
	</g>
	<path fill="#FFFFFF" d="M-2402.6-603.8c0-1.7-1.4-3.1-3.1-3c-46.7,1.7-84,41-84,89.2c0,49.3,39,89.2,87.1,89.2
		c47.1,0,85.4-38.3,87-86.1c0.1-1.7-1.3-3.1-3-3.1h-81c-1.7,0-3-1.3-3-3V-603.8z"/>
	<path fill="#FFFFFF" d="M-2588.1-721.9c0-0.8,0.3-1.6,0.9-2.1l30.3-30.3l29-29c1.2-1.2,1.2-3.1,0-4.3c-7.5-7.3-16.2-13.3-25.8-17.5
		c-10.5-4.7-22.2-7.2-34.4-7.2c-24.1,0-45.8,10-61.6,26.1c-15.8,16.1-25.5,38.4-25.5,63.1c0,24.6,9.7,46.9,25.5,63.1
		c15.1,15.4,35.7,25.3,58.5,26.1c1.7,0.1,3.1-1.3,3.1-3v-41.5V-721.9z"/>
	<g>
		<path fill="#FFFFFF" d="M-2560.1-428h-80.8c-6.5,0-11.7-5.3-11.7-11.7v-155c0-6.5,5.3-11.7,11.7-11.7h80.8
			c6.5,0,11.7,5.3,11.7,11.7v155C-2548.4-433.3-2553.6-428-2560.1-428z M-2634.6-446.1h68.2v-142.4h-68.2V-446.1z"/>
	</g>
	<g>
		<path fill="#FFFFFF" d="M-2200.2-428.2c-48.1,0-87.3-39.8-87.3-88.7l0-77.8c0-6.4,5.2-11.7,11.7-11.7h151.2
			c6.4,0,11.7,5.2,11.7,11.7v77.8C-2112.9-468.1-2152.1-428.2-2200.2-428.2z M-2269.5-588.5v71.5c0,39,31.1,70.8,69.3,70.8
			c38.2,0,69.3-31.7,69.3-70.8l0-71.5H-2269.5z"/>
	</g>
	<text transform="matrix(1 0 0 1 -2169.262 -565.2452)" fill="#FFFFFF" font-family="'GothamBlack'" font-size="19.3564">TM</text>
</g>
<g>
	<g>
		<path fill="#4656A6" d="M-2188.9,1.7c3.2,0,3.2-5,0-5C-2192.1-3.3-2192.1,1.7-2188.9,1.7L-2188.9,1.7z"/>
	</g>
</g>
<g>
	<rect x="1427.4" y="-1548.5" fill="#4656A6" width="800" height="1236"/>
	<g>
		<g>
			<path fill="#FFFFFF" d="M2157.7-534.7c0-25-20.1-45.2-44.9-45.6v0h-18.5c-0.8,0-1.5,0.7-1.5,1.5v17.3c0,0.8-0.7,1.5-1.5,1.5
				h-18.1c-0.8,0-1.5,0.7-1.5,1.5v2.7v41.9v23.1c0,0.8,0.7,1.5,1.5,1.5h39l0,0l0,0h0.6v0C2137.6-489.5,2157.7-509.7,2157.7-534.7z"
				/>
			<g>
				<path fill="#FFFFFF" d="M2012.9-489.6c-24.3,0-44.1-20.2-44.1-45.1c0-24.9,19.8-45.1,44.1-45.1s44.1,20.2,44.1,45.1
					C2057-509.8,2037.2-489.6,2012.9-489.6z M2012.9-570.7c-19.3,0-35,16.1-35,36s15.7,36,35,36c19.3,0,35-16.1,35-36
					S2032.2-570.7,2012.9-570.7z"/>
			</g>
			<path fill="#FFFFFF" d="M2012.8-473.9c0-0.9-0.7-1.6-1.6-1.5c-23.8,0.9-42.8,20.9-42.8,45.4c0,25.1,19.9,45.5,44.4,45.5
				c24,0,43.5-19.5,44.4-43.9c0-0.9-0.7-1.6-1.5-1.6h-41.3c-0.8,0-1.5-0.7-1.5-1.5V-473.9z"/>
			<path fill="#FFFFFF" d="M1918.3-534.1c0-0.4,0.2-0.8,0.4-1.1l15.4-15.4l14.8-14.8c0.6-0.6,0.6-1.6,0-2.2
				c-3.8-3.7-8.2-6.8-13.1-8.9c-5.4-2.4-11.3-3.7-17.5-3.7c-12.3,0-23.4,5.1-31.4,13.3s-13,19.6-13,32.1c0,12.6,5,23.9,13,32.1
				c7.7,7.9,18.2,12.9,29.8,13.3c0.9,0,1.6-0.7,1.6-1.5V-512V-534.1z"/>
			<g>
				<path fill="#FFFFFF" d="M1932.6-384.3h-41.2c-3.3,0-6-2.7-6-6v-79c0-3.3,2.7-6,6-6h41.2c3.3,0,6,2.7,6,6v79
					C1938.5-387,1935.9-384.3,1932.6-384.3z M1894.6-393.5h34.7v-72.6h-34.7V-393.5z"/>
			</g>
			<g>
				<path fill="#FFFFFF" d="M2116-384.4c-24.5,0-44.5-20.3-44.5-45.2l0-39.7c0-3.3,2.7-5.9,6-5.9h77.1c3.3,0,6,2.7,6,5.9v39.7
					C2160.4-404.7,2140.5-384.4,2116-384.4z M2080.6-466.1v36.4c0,19.9,15.9,36.1,35.3,36.1c19.5,0,35.3-16.2,35.3-36.1l0-36.4
					H2080.6z"/>
			</g>
			<text transform="matrix(1 0 0 1 2131.72 -454.2521)" fill="#FFFFFF" font-family="'GothamBlack'" font-size="9.8635">TM</text>
		</g>
		<g>
			<path fill="#FFFFFF" d="M1772.1-1340.9h-20.8l9.9-20.7L1772.1-1340.9z M1757.2-1344.5h8.8l-4.6-8.8L1757.2-1344.5z"/>
		</g>
		<g>
			<path fill="#FFFFFF" d="M1503.6-1342c-5.1,0-9.2-4.1-9.2-9.2s4.1-9.2,9.2-9.2c5.1,0,9.2,4.1,9.2,9.2S1508.7-1342,1503.6-1342z
				 M1503.6-1356.8c-3.1,0-5.5,2.5-5.5,5.5c0,3.1,2.5,5.5,5.5,5.5c3.1,0,5.5-2.5,5.5-5.5C1509.1-1354.3,1506.6-1356.8,1503.6-1356.8
				z"/>
		</g>
		<path fill="#FFFFFF" d="M1761.8-1251.6"/>
		<path fill="#FFFFFF" d="M1509-1249.3c-1,1.2-2.5,2-4.2,2c-3.1,0-5.5-2.5-5.5-5.5c0-1.7,0.8-3.2,2-4.2l-2.6-2.6
			c-1.9,1.7-3.1,4.1-3.1,6.8c0,5.1,4.1,9.2,9.2,9.2c2.7,0,5.1-1.2,6.8-3.1L1509-1249.3z"/>
		<g>
			<path fill="#FFFFFF" d="M1641.1-1342h-18.5v-18.5h18.5V-1342z M1626.4-1345.7h11.1v-11.1h-11.1V-1345.7z"/>
		</g>
		<g>
			<g>
				
					<rect x="1621.5" y="-1253.5" transform="matrix(0.7071 0.7071 -0.7071 0.7071 -407.0583 -1520.5205)" fill="#FFFFFF" width="20.9" height="3.7"/>
			</g>
			<g>
				
					<rect x="1621.5" y="-1253.5" transform="matrix(0.7071 0.7071 -0.7071 0.7071 -407.0583 -1520.5205)" fill="#FFFFFF" width="20.9" height="3.7"/>
			</g>
			<g>
				
					<rect x="1621.5" y="-1253.5" transform="matrix(0.7071 0.7071 -0.7071 0.7071 -407.0583 -1520.5205)" fill="#FFFFFF" width="20.9" height="3.7"/>
			</g>
			<g>
				
					<rect x="1630.1" y="-1262.1" transform="matrix(0.7071 0.7071 -0.7071 0.7071 -407.0583 -1520.5205)" fill="#FFFFFF" width="3.7" height="20.9"/>
			</g>
			<g>
				
					<rect x="1630.1" y="-1262.1" transform="matrix(0.7071 0.7071 -0.7071 0.7071 -407.0583 -1520.5205)" fill="#FFFFFF" width="3.7" height="20.9"/>
			</g>
			<g>
				
					<rect x="1630.1" y="-1262.1" transform="matrix(0.7071 0.7071 -0.7071 0.7071 -407.0583 -1520.5205)" fill="#FFFFFF" width="3.7" height="20.9"/>
			</g>
		</g>
		<polygon fill="#FFFFFF" points="1755.9,-1245.8 1755.9,-1260.9 1752.5,-1260.9 1752.5,-1242.4 1771,-1242.4 1771,-1245.8 		"/>
		<g>
			
				<rect x="1878.4" y="-1255.3" transform="matrix(-0.7071 0.7071 -0.7071 -0.7071 2338.1448 -3475.385)" fill="#FFFFFF" width="20.9" height="3.7"/>
		</g>
		<g>
			<g>
				<rect x="2145.4" y="-1262.4" fill="#FFFFFF" width="3.2" height="18"/>
			</g>
			<g>
				<rect x="2138" y="-1255" fill="#FFFFFF" width="18" height="3.2"/>
			</g>
		</g>
		<path fill="#FFFFFF" d="M2147-1353"/>
		<path fill="#FFFFFF" d="M1894.3-1350.7c-1,1.2-2.5,2-4.2,2c-3.1,0-5.5-2.5-5.5-5.5c0-1.7,0.8-3.2,2-4.2l-2.6-2.6
			c-1.9,1.7-3.1,4.1-3.1,6.8c0,5.1,4.1,9.2,9.2,9.2c2.7,0,5.1-1.2,6.8-3.1L1894.3-1350.7z"/>
		<g>
			
				<rect x="1493.1" y="-1454.1" transform="matrix(-0.7071 0.7071 -0.7071 -0.7071 1539.8445 -3542.3699)" fill="#FFFFFF" width="20.9" height="3.7"/>
		</g>
		<g>
			<g>
				<rect x="1760.2" y="-1461.3" fill="#FFFFFF" width="3.2" height="18"/>
			</g>
			<g>
				<rect x="1752.8" y="-1453.9" fill="#FFFFFF" width="18" height="3.2"/>
			</g>
		</g>
		<g>
			<path fill="#FFFFFF" d="M1631.9-1465.3l13.1,13.1l-13.1,13.1l-13.1-13.1L1631.9-1465.3z M1639.7-1452.3l-7.8-7.8l-7.8,7.8
				l7.8,7.8L1639.7-1452.3z"/>
		</g>
		<g>
			<path fill="#FFFFFF" d="M2157.4-1442.3h-20.8l9.9-20.7L2157.4-1442.3z M2142.5-1446h8.8l-4.6-8.8L2142.5-1446z"/>
		</g>
		<g>
			<path fill="#FFFFFF" d="M1888.8-1443.4c-5.1,0-9.2-4.1-9.2-9.2c0-5.1,4.1-9.2,9.2-9.2c5.1,0,9.2,4.1,9.2,9.2
				C1898.1-1447.6,1893.9-1443.4,1888.8-1443.4z M1888.8-1458.2c-3.1,0-5.5,2.5-5.5,5.5c0,3.1,2.5,5.5,5.5,5.5
				c3.1,0,5.5-2.5,5.5-5.5C1894.4-1455.7,1891.9-1458.2,1888.8-1458.2z"/>
		</g>
		<g>
			<path fill="#FFFFFF" d="M2026.4-1443.4h-18.5v-18.5h18.5V-1443.4z M2011.6-1447.1h11.1v-11.1h-11.1V-1447.1z"/>
		</g>
		<g>
			<path fill="#FFFFFF" d="M2017.2-1266.5l13.1,13.1l-13.1,13.1l-13.1-13.1L2017.2-1266.5z M2025-1253.4l-7.8-7.8l-7.8,7.8l7.8,7.8
				L2025-1253.4z"/>
		</g>
		<g>
			<g>
				
					<rect x="2006.7" y="-1354.9" transform="matrix(0.7071 0.7071 -0.7071 0.7071 -365.9238 -1822.6563)" fill="#FFFFFF" width="20.9" height="3.7"/>
			</g>
			<g>
				
					<rect x="2006.7" y="-1354.9" transform="matrix(0.7071 0.7071 -0.7071 0.7071 -365.9238 -1822.6563)" fill="#FFFFFF" width="20.9" height="3.7"/>
			</g>
			<g>
				
					<rect x="2006.7" y="-1354.9" transform="matrix(0.7071 0.7071 -0.7071 0.7071 -365.9238 -1822.6563)" fill="#FFFFFF" width="20.9" height="3.7"/>
			</g>
			<g>
				
					<rect x="2015.3" y="-1363.5" transform="matrix(0.7071 0.7071 -0.7071 0.7071 -365.9238 -1822.6563)" fill="#FFFFFF" width="3.7" height="20.9"/>
			</g>
			<g>
				
					<rect x="2015.3" y="-1363.5" transform="matrix(0.7071 0.7071 -0.7071 0.7071 -365.9238 -1822.6563)" fill="#FFFFFF" width="3.7" height="20.9"/>
			</g>
			<g>
				
					<rect x="2015.3" y="-1363.5" transform="matrix(0.7071 0.7071 -0.7071 0.7071 -365.9238 -1822.6563)" fill="#FFFFFF" width="3.7" height="20.9"/>
			</g>
		</g>
		<polygon fill="#FFFFFF" points="2141.2,-1347.2 2141.2,-1362.3 2137.8,-1362.3 2137.8,-1343.8 2156.3,-1343.8 2156.3,-1347.2 		
			"/>
		<g>
			
				<rect x="1493.1" y="-393.3" transform="matrix(-0.7071 0.7071 -0.7071 -0.7071 2289.9773 -1731.3889)" fill="#FFFFFF" width="20.9" height="3.7"/>
		</g>
		<g>
			<g>
				<rect x="1760.2" y="-400.4" fill="#FFFFFF" width="3.2" height="18"/>
			</g>
			<g>
				<rect x="1752.8" y="-393" fill="#FFFFFF" width="18" height="3.2"/>
			</g>
		</g>
		<g>
			<path fill="#FFFFFF" d="M1772.1-580.2h-20.8l9.9-20.7L1772.1-580.2z M1757.2-583.9h8.8l-4.6-8.8L1757.2-583.9z"/>
		</g>
		<g>
			<path fill="#FFFFFF" d="M1503.6-581.4c-5.1,0-9.2-4.1-9.2-9.2c0-5.1,4.1-9.2,9.2-9.2c5.1,0,9.2,4.1,9.2,9.2
				C1512.8-585.5,1508.7-581.4,1503.6-581.4z M1503.6-596.2c-3.1,0-5.5,2.5-5.5,5.5c0,3.1,2.5,5.5,5.5,5.5c3.1,0,5.5-2.5,5.5-5.5
				C1509.1-593.7,1506.6-596.2,1503.6-596.2z"/>
		</g>
		<path fill="#FFFFFF" d="M1761.8-491"/>
		<path fill="#FFFFFF" d="M1509-488.7c-1,1.2-2.5,2-4.2,2c-3.1,0-5.5-2.5-5.5-5.5c0-1.7,0.8-3.2,2-4.2l-2.6-2.6
			c-1.9,1.7-3.1,4.1-3.1,6.8c0,5.1,4.1,9.2,9.2,9.2c2.7,0,5.1-1.2,6.8-3.1L1509-488.7z"/>
		<g>
			<path fill="#FFFFFF" d="M1641.1-581.4h-18.5v-18.5h18.5V-581.4z M1626.4-585.1h11.1v-11.1h-11.1V-585.1z"/>
		</g>
		<g>
			<path fill="#FFFFFF" d="M1631.9-404.5l13.1,13.1l-13.1,13.1l-13.1-13.1L1631.9-404.5z M1639.7-391.4l-7.8-7.8l-7.8,7.8l7.8,7.8
				L1639.7-391.4z"/>
		</g>
		<g>
			<g>
				
					<rect x="1621.5" y="-492.9" transform="matrix(0.7071 0.7071 -0.7071 0.7071 130.7728 -1297.7435)" fill="#FFFFFF" width="20.9" height="3.7"/>
			</g>
			<g>
				
					<rect x="1621.5" y="-492.9" transform="matrix(0.7071 0.7071 -0.7071 0.7071 130.7728 -1297.7435)" fill="#FFFFFF" width="20.9" height="3.7"/>
			</g>
			<g>
				
					<rect x="1621.5" y="-492.9" transform="matrix(0.7071 0.7071 -0.7071 0.7071 130.7728 -1297.7435)" fill="#FFFFFF" width="20.9" height="3.7"/>
			</g>
			<g>
				
					<rect x="1630.1" y="-501.5" transform="matrix(0.7071 0.7071 -0.7071 0.7071 130.7728 -1297.7435)" fill="#FFFFFF" width="3.7" height="20.9"/>
			</g>
			<g>
				
					<rect x="1630.1" y="-501.5" transform="matrix(0.7071 0.7071 -0.7071 0.7071 130.7728 -1297.7435)" fill="#FFFFFF" width="3.7" height="20.9"/>
			</g>
			<g>
				
					<rect x="1630.1" y="-501.5" transform="matrix(0.7071 0.7071 -0.7071 0.7071 130.7728 -1297.7435)" fill="#FFFFFF" width="3.7" height="20.9"/>
			</g>
		</g>
		<polygon fill="#FFFFFF" points="1755.9,-485.2 1755.9,-500.2 1752.5,-500.2 1752.5,-481.8 1771,-481.8 1771,-485.2 		"/>
		<text transform="matrix(1 0 0 1 1477.1573 -1038.557)"><tspan x="0" y="0" fill="#FFFFFF" font-family="'GothamBlack'" font-size="125.2279">BUILDING</tspan><tspan x="0" y="150.3" fill="#FFFFFF" font-family="'GothamBlack'" font-size="125.2279">WHATS</tspan><tspan x="0" y="300.5" fill="#FFFFFF" font-family="'GothamBlack'" font-size="125.2279">NEXT</tspan></text>
	</g>
</g>
<g>
	<path fill="#FFFFFF" d="M556.9,89.5c0-49-39.4-88.8-88.2-89.5v0h-36.3c-1.7,0-3,1.3-3,3v34c0,1.7-1.3,3-3,3h-35.5c-1.7,0-3,1.3-3,3
		v5.4v82.3V176c0,1.7,1.3,3,3,3h76.5c0,0,0,0,0,0c0,0,0,0,0,0h1.3v0C517.5,178.3,556.9,138.5,556.9,89.5z"/>
	<g>
		<path fill="#FFFFFF" d="M272.8,178c-47.8,0-86.6-39.7-86.6-88.5S225,1,272.8,1s86.6,39.7,86.6,88.5S320.5,178,272.8,178z
			 M272.8,18.9c-37.9,0-68.8,31.7-68.8,70.6s30.8,70.6,68.8,70.6s68.8-31.7,68.8-70.6S310.7,18.9,272.8,18.9z"/>
	</g>
	<path fill="#FFFFFF" d="M272.6,208.8c0-1.7-1.4-3.1-3.1-3c-46.7,1.7-84,41-84,89.2c0,49.3,39,89.2,87.1,89.2
		c47.1,0,85.4-38.3,87-86.1c0.1-1.7-1.3-3.1-3-3.1h-81c-1.7,0-3-1.3-3-3V208.8z"/>
	<path fill="#FFFFFF" d="M87.1,90.7c0-0.8,0.3-1.6,0.9-2.1l30.3-30.3l29-29c1.2-1.2,1.2-3.1,0-4.3c-7.5-7.3-16.2-13.3-25.8-17.5
		c-10.5-4.7-22.2-7.2-34.4-7.2c-24.1,0-45.8,10-61.6,26.1S0,64.9,0,89.5c0,24.6,9.7,46.9,25.5,63.1C40.6,168,61.2,177.8,84,178.7
		c1.7,0.1,3.1-1.3,3.1-3v-41.5V90.7z"/>
	<g>
		<path fill="#FFFFFF" d="M115.1,384.6H34.3c-6.5,0-11.7-5.3-11.7-11.7v-155c0-6.5,5.3-11.7,11.7-11.7h80.8
			c6.5,0,11.7,5.3,11.7,11.7v155C126.8,379.3,121.6,384.6,115.1,384.6z M40.6,366.6h68.2V224.1H40.6V366.6z"/>
	</g>
	<g>
		<path fill="#FFFFFF" d="M475,384.4c-48.1,0-87.3-39.8-87.3-88.7l0-77.8c0-6.4,5.2-11.7,11.7-11.7h151.2c6.4,0,11.7,5.2,11.7,11.7
			v77.8C562.3,344.6,523.1,384.4,475,384.4z M405.7,224.1v71.5c0,39,31.1,70.8,69.3,70.8c38.2,0,69.3-31.7,69.3-70.8l0-71.5H405.7z"
			/>
	</g>
</g>
</svg>
