<?xml version="1.0" encoding="utf-8"?>
<!-- Generator: Adobe Illustrator 18.1.1, SVG Export Plug-In . SVG Version: 6.00 Build 0)  -->
<svg version="1.1" id="Layer_1" xmlns="http://www.w3.org/2000/svg" xmlns:xlink="http://www.w3.org/1999/xlink" x="0px" y="0px"
	 viewBox="0 0 800 600" enable-background="new 0 0 800 600" xml:space="preserve">
<g>
	<g>
		
			<rect x="-285.7" y="-919" transform="matrix(0.7071 -0.7071 0.7071 0.7071 568.6255 -459.9116)" fill="#1A1A1A" width="29.7" height="5.3"/>
	</g>
	<g>
		<g>
			<rect x="94.2" y="-929.1" fill="#1A1A1A" width="4.6" height="25.6"/>
		</g>
		<g>
			<rect x="83.7" y="-918.6" fill="#1A1A1A" width="25.6" height="4.6"/>
		</g>
	</g>
	<g>
		<path fill="#1A1A1A" d="M111.3-1185H81.8l14.1-29.5L111.3-1185z M90.1-1190.3h12.5l-6.5-12.5L90.1-1190.3z"/>
	</g>
	<g>
		<path fill="#1A1A1A" d="M-270.9-1186.6c-7.3,0-13.1-5.8-13.1-13.1c0-7.3,5.8-13.1,13.1-13.1c7.3,0,13.1,5.8,13.1,13.1
			C-257.7-1192.6-263.6-1186.6-270.9-1186.6z M-270.9-1207.7c-4.4,0-7.8,3.6-7.8,7.8c0,4.4,3.6,7.8,7.8,7.8c4.4,0,7.8-3.6,7.8-7.8
			C-262.9-1204.1-266.5-1207.7-270.9-1207.7z"/>
	</g>
	<path fill="#1A1A1A" d="M96.5-1058"/>
	<path fill="#1A1A1A" d="M-263.1-1054.7c-1.4,1.7-3.6,2.8-6,2.8c-4.4,0-7.8-3.6-7.8-7.8c0-2.4,1.1-4.6,2.8-6l-3.7-3.7
		c-2.7,2.4-4.4,5.8-4.4,9.7c0,7.3,5.8,13.1,13.1,13.1c3.8,0,7.3-1.7,9.7-4.4L-263.1-1054.7z"/>
	<g>
		<path fill="#1A1A1A" d="M-75.1-1186.6h-26.3v-26.3h26.3C-75.1-1212.9-75.1-1186.6-75.1-1186.6z M-96.2-1191.9h15.8v-15.8h-15.8
			V-1191.9z"/>
	</g>
	<g>
		<path fill="#1A1A1A" d="M-88.2-934.9l18.6,18.6l-18.6,18.5l-18.6-18.6L-88.2-934.9z M-77.1-916.3l-11.1-11.1l-11.1,11.1l11.1,11.1
			L-77.1-916.3z"/>
	</g>
	<g>
		<g>
			
				<rect x="-103.1" y="-1060.7" transform="matrix(-0.7071 -0.7071 0.7071 -0.7071 597.4885 -1868.6539)" fill="#1A1A1A" width="29.7" height="5.3"/>
		</g>
		<g>
			
				<rect x="-103.1" y="-1060.7" transform="matrix(-0.7071 -0.7071 0.7071 -0.7071 597.4885 -1868.6539)" fill="#1A1A1A" width="29.7" height="5.3"/>
		</g>
		<g>
			
				<rect x="-103.1" y="-1060.7" transform="matrix(-0.7071 -0.7071 0.7071 -0.7071 597.4885 -1868.6539)" fill="#1A1A1A" width="29.7" height="5.3"/>
		</g>
		<g>
			
				<rect x="-90.9" y="-1072.9" transform="matrix(-0.7071 -0.7071 0.7071 -0.7071 597.4886 -1868.6539)" fill="#1A1A1A" width="5.3" height="29.7"/>
		</g>
		<g>
			
				<rect x="-90.9" y="-1072.9" transform="matrix(-0.7071 -0.7071 0.7071 -0.7071 597.4886 -1868.6539)" fill="#1A1A1A" width="5.3" height="29.7"/>
		</g>
		<g>
			
				<rect x="-90.9" y="-1072.9" transform="matrix(-0.7071 -0.7071 0.7071 -0.7071 597.4886 -1868.6539)" fill="#1A1A1A" width="5.3" height="29.7"/>
		</g>
	</g>
	<polygon fill="#1A1A1A" points="88.2,-1049.7 88.2,-1071.2 83.4,-1071.2 83.4,-1044.9 109.7,-1044.9 109.7,-1049.7 	"/>
	<g>
		
			<rect x="262.4" y="-1063.3" transform="matrix(0.7071 -0.7071 0.7071 0.7071 831.1852 -114.5979)" fill="#1A1A1A" width="29.7" height="5.3"/>
	</g>
	<g>
		<g>
			<rect x="642.4" y="-1073.5" fill="#1A1A1A" width="4.6" height="25.6"/>
		</g>
		<g>
			<rect x="631.8" y="-1063" fill="#1A1A1A" width="25.6" height="4.6"/>
		</g>
	</g>
	<g>
		<path fill="#1A1A1A" d="M659.4-902.1h-29.6l14.1-29.5L659.4-902.1z M638.2-907.3h12.5l-6.5-12.5L638.2-907.3z"/>
	</g>
	<g>
		<path fill="#1A1A1A" d="M277.3-903.8c-7.3,0-13.1-5.8-13.1-13.1c0-7.3,5.8-13.1,13.1-13.1c7.3,0,13.1,5.8,13.1,13.1
			C290.4-909.6,284.5-903.8,277.3-903.8z M277.3-924.8c-4.4,0-7.8,3.6-7.8,7.8c0,4.4,3.6,7.8,7.8,7.8c4.4,0,7.8-3.6,7.8-7.8
			C285.3-921.3,281.7-924.8,277.3-924.8z"/>
	</g>
	<path fill="#1A1A1A" d="M644.6-1202.4"/>
	<path fill="#1A1A1A" d="M285-1199c-1.4,1.7-3.6,2.8-6,2.8c-4.4,0-7.8-3.6-7.8-7.8c0-2.4,1.1-4.6,2.8-6l-3.7-3.7
		c-2.7,2.4-4.4,5.8-4.4,9.7c0,7.3,5.8,13.1,13.1,13.1c3.8,0,7.3-1.7,9.7-4.4L285-1199z"/>
	<g>
		<path fill="#1A1A1A" d="M473.1-903.8h-26.3v-26.3h26.3V-903.8z M452-909h15.8v-15.8H452V-909z"/>
	</g>
	<g>
		<path fill="#1A1A1A" d="M459.8-1079.2l18.6,18.6l-18.6,18.5l-18.6-18.6L459.8-1079.2z M471.1-1060.7l-11.1-11.1l-11.1,11.1
			l11.1,11.1L471.1-1060.7z"/>
	</g>
	<g>
		<g>
			
				<rect x="445" y="-1205" transform="matrix(-0.7071 -0.7071 0.7071 -0.7071 1635.2373 -1727.3054)" fill="#1A1A1A" width="29.7" height="5.3"/>
		</g>
		<g>
			
				<rect x="445" y="-1205" transform="matrix(-0.7071 -0.7071 0.7071 -0.7071 1635.2373 -1727.3054)" fill="#1A1A1A" width="29.7" height="5.3"/>
		</g>
		<g>
			
				<rect x="445" y="-1205" transform="matrix(-0.7071 -0.7071 0.7071 -0.7071 1635.2373 -1727.3054)" fill="#1A1A1A" width="29.7" height="5.3"/>
		</g>
		<g>
			
				<rect x="457.2" y="-1217.2" transform="matrix(-0.7071 -0.7071 0.7071 -0.7071 1635.2372 -1727.3052)" fill="#1A1A1A" width="5.3" height="29.7"/>
		</g>
		<g>
			
				<rect x="457.2" y="-1217.2" transform="matrix(-0.7071 -0.7071 0.7071 -0.7071 1635.2372 -1727.3052)" fill="#1A1A1A" width="5.3" height="29.7"/>
		</g>
		<g>
			
				<rect x="457.2" y="-1217.2" transform="matrix(-0.7071 -0.7071 0.7071 -0.7071 1635.2372 -1727.3052)" fill="#1A1A1A" width="5.3" height="29.7"/>
		</g>
	</g>
	<polygon fill="#1A1A1A" points="636.4,-1194.1 636.4,-1215.5 631.5,-1215.5 631.5,-1189.2 657.7,-1189.2 657.7,-1194.1 	"/>
	<g>
		
			<rect x="-285.7" y="-491.8" transform="matrix(0.7071 -0.7071 0.7071 0.7071 266.5599 -334.7563)" fill="#1A1A1A" width="29.7" height="5.3"/>
	</g>
	<g>
		<g>
			<rect x="94.2" y="-502" fill="#1A1A1A" width="4.6" height="25.6"/>
		</g>
		<g>
			<rect x="83.7" y="-491.5" fill="#1A1A1A" width="25.6" height="4.6"/>
		</g>
	</g>
	<g>
		<path fill="#1A1A1A" d="M111.3-757.8H81.8l14.1-29.5L111.3-757.8z M90.1-763.1h12.5L96-775.6L90.1-763.1z"/>
	</g>
	<g>
		<path fill="#1A1A1A" d="M-270.9-759.5c-7.3,0-13.1-5.8-13.1-13.1c0-7.3,5.8-13.1,13.1-13.1c7.3,0,13.1,5.8,13.1,13.1
			C-257.7-765.3-263.6-759.5-270.9-759.5z M-270.9-780.4c-4.4,0-7.8,3.6-7.8,7.8s3.6,7.8,7.8,7.8c4.4,0,7.8-3.6,7.8-7.8
			S-266.5-780.4-270.9-780.4z"/>
	</g>
	<path fill="#1A1A1A" d="M96.5-630.9"/>
	<path fill="#1A1A1A" d="M-263.1-627.5c-1.4,1.7-3.6,2.8-6,2.8c-4.4,0-7.8-3.6-7.8-7.8c0-2.4,1.1-4.6,2.8-6l-3.7-3.7
		c-2.7,2.4-4.4,5.8-4.4,9.7c0,7.3,5.8,13.1,13.1,13.1c3.8,0,7.3-1.7,9.7-4.4L-263.1-627.5z"/>
	<g>
		<path fill="#1A1A1A" d="M-75.1-759.5h-26.3v-26.3h26.3C-75.1-785.8-75.1-759.5-75.1-759.5z M-96.2-764.8h15.8v-15.8h-15.8V-764.8z
			"/>
	</g>
	<g>
		<path fill="#1A1A1A" d="M-88.2-507.8l18.6,18.6l-18.6,18.5l-18.6-18.6L-88.2-507.8z M-77.1-489.2l-11.1-11.1l-11.1,11.1l11.1,11.1
			L-77.1-489.2z"/>
	</g>
	<g>
		<g>
			
				<rect x="-103.2" y="-633.5" transform="matrix(-0.7071 -0.7071 0.7071 -0.7071 295.3023 -1139.3888)" fill="#1A1A1A" width="29.7" height="5.3"/>
		</g>
		<g>
			
				<rect x="-103.2" y="-633.5" transform="matrix(-0.7071 -0.7071 0.7071 -0.7071 295.3023 -1139.3888)" fill="#1A1A1A" width="29.7" height="5.3"/>
		</g>
		<g>
			
				<rect x="-103.2" y="-633.5" transform="matrix(-0.7071 -0.7071 0.7071 -0.7071 295.3023 -1139.3888)" fill="#1A1A1A" width="29.7" height="5.3"/>
		</g>
		<g>
			
				<rect x="-91" y="-645.7" transform="matrix(-0.7071 -0.7071 0.7071 -0.7071 295.3023 -1139.3888)" fill="#1A1A1A" width="5.3" height="29.7"/>
		</g>
		<g>
			
				<rect x="-91" y="-645.7" transform="matrix(-0.7071 -0.7071 0.7071 -0.7071 295.3023 -1139.3888)" fill="#1A1A1A" width="5.3" height="29.7"/>
		</g>
		<g>
			
				<rect x="-91" y="-645.7" transform="matrix(-0.7071 -0.7071 0.7071 -0.7071 295.3023 -1139.3888)" fill="#1A1A1A" width="5.3" height="29.7"/>
		</g>
	</g>
	<polygon fill="#1A1A1A" points="88.2,-622.6 88.2,-644 83.4,-644 83.4,-617.8 109.7,-617.8 109.7,-622.6 	"/>
	<g>
		
			<rect x="262.4" y="-636.1" transform="matrix(0.7071 -0.7071 0.7071 0.7071 529.1196 10.5574)" fill="#1A1A1A" width="29.7" height="5.3"/>
	</g>
	<g>
		<g>
			<rect x="642.4" y="-646.3" fill="#1A1A1A" width="4.6" height="25.6"/>
		</g>
		<g>
			<rect x="631.8" y="-635.7" fill="#1A1A1A" width="25.6" height="4.6"/>
		</g>
	</g>
	<g>
		<path fill="#1A1A1A" d="M659.4-475h-29.6l14.1-29.5L659.4-475z M638.2-480.2h12.5l-6.5-12.5L638.2-480.2z"/>
	</g>
	<g>
		<path fill="#1A1A1A" d="M277.3-476.5c-7.3,0-13.1-5.8-13.1-13.1s5.8-13.1,13.1-13.1c7.3,0,13.1,5.8,13.1,13.1
			S284.5-476.5,277.3-476.5z M277.3-497.6c-4.4,0-7.8,3.6-7.8,7.8c0,4.3,3.6,7.8,7.8,7.8c4.4,0,7.8-3.6,7.8-7.8
			C285.1-494,281.7-497.6,277.3-497.6z"/>
	</g>
	<path fill="#1A1A1A" d="M644.6-775.2"/>
	<path fill="#1A1A1A" d="M285-771.9c-1.4,1.7-3.6,2.8-6,2.8c-4.4,0-7.8-3.6-7.8-7.8c0-2.4,1.1-4.6,2.8-6l-3.7-3.7
		c-2.7,2.4-4.4,5.8-4.4,9.7c0,7.3,5.8,13.1,13.1,13.1c3.8,0,7.3-1.7,9.7-4.4L285-771.9z"/>
	<g>
		<path fill="#1A1A1A" d="M473.1-476.5h-26.3v-26.3h26.3V-476.5z M452-481.8h15.8v-15.8H452V-481.8z"/>
	</g>
	<g>
		<path fill="#1A1A1A" d="M459.8-652.1l18.6,18.6l-18.6,18.6l-18.6-18.6L459.8-652.1z M471.1-633.5L460-644.5l-11.1,11.1l11.1,11.1
			L471.1-633.5z"/>
	</g>
	<g>
		<g>
			
				<rect x="445.1" y="-777.8" transform="matrix(-0.7071 -0.7071 0.7071 -0.7071 1333.2938 -998.1408)" fill="#1A1A1A" width="29.7" height="5.3"/>
		</g>
		<g>
			
				<rect x="445.1" y="-777.8" transform="matrix(-0.7071 -0.7071 0.7071 -0.7071 1333.2938 -998.1408)" fill="#1A1A1A" width="29.7" height="5.3"/>
		</g>
		<g>
			
				<rect x="445.1" y="-777.8" transform="matrix(-0.7071 -0.7071 0.7071 -0.7071 1333.2938 -998.1408)" fill="#1A1A1A" width="29.7" height="5.3"/>
		</g>
		<g>
			
				<rect x="457.3" y="-790.1" transform="matrix(-0.7071 -0.7071 0.7071 -0.7071 1333.2939 -998.1407)" fill="#1A1A1A" width="5.3" height="29.7"/>
		</g>
		<g>
			
				<rect x="457.3" y="-790.1" transform="matrix(-0.7071 -0.7071 0.7071 -0.7071 1333.2939 -998.1407)" fill="#1A1A1A" width="5.3" height="29.7"/>
		</g>
		<g>
			
				<rect x="457.3" y="-790.1" transform="matrix(-0.7071 -0.7071 0.7071 -0.7071 1333.2939 -998.1407)" fill="#1A1A1A" width="5.3" height="29.7"/>
		</g>
	</g>
	<polygon fill="#1A1A1A" points="636.4,-766.9 636.4,-788.2 631.5,-788.2 631.5,-762.1 657.7,-762.1 657.7,-766.9 	"/>
</g>
<g>
	<g>
		<path fill="#1A1A1A" d="M654.2-1600.1c0-35.6-28.6-64.3-63.9-64.9l0,0H564c-1.1,0-2.1,1-2.1,2.1v24.6c0,1.1-1,2.1-2.1,2.1h-25.8
			c-1.1,0-2.1,1-2.1,2.1v3.8v59.6v32.9c0,1.1,1,2.1,2.1,2.1h55.5l0,0l0,0h0.9l0,0C625.6-1535.6,654.2-1564.5,654.2-1600.1z"/>
		<g>
			<path fill="#1A1A1A" d="M448.2-1535.9c-34.6,0-62.7-28.7-62.7-64.2c0-35.4,28.2-64.2,62.7-64.2s62.7,28.7,62.7,64.2
				C510.9-1564.6,482.7-1535.9,448.2-1535.9z M448.2-1651.3c-27.5,0-49.8,22.9-49.8,51.2c0,28.3,22.3,51.2,49.8,51.2
				c27.5,0,49.8-22.9,49.8-51.2C498-1628.4,475.6-1651.3,448.2-1651.3z"/>
		</g>
		<path fill="#1A1A1A" d="M448-1513.6c0-1.3-1-2.3-2.3-2.1c-33.9,1.3-60.9,29.7-60.9,64.6c0,35.7,28.3,64.7,63.2,64.7
			c34.1,0,61.9-27.7,63.2-62.5c0-1.3-1-2.3-2.1-2.3h-58.8c-1.1,0-2.1-1-2.1-2.1v-60.3H448z"/>
		<path fill="#1A1A1A" d="M313.6-1599.1c0-0.6,0.3-1.1,0.6-1.6l21.9-21.9l21.1-21.1c0.9-0.9,0.9-2.3,0-3.1
			c-5.4-5.3-11.7-9.7-18.6-12.7c-7.7-3.4-16.1-5.3-24.9-5.3c-17.5,0-33.3,7.3-44.7,18.9c-11.4,11.7-18.5,27.9-18.5,45.7
			c0,17.9,7.1,34,18.5,45.7c11,11.2,25.9,18.4,42.4,18.9c1.3,0,2.3-1,2.3-2.1v-30.2V-1599.1z"/>
		<g>
			<path fill="#1A1A1A" d="M333.8-1386.1h-58.6c-4.7,0-8.5-3.8-8.5-8.5V-1507c0-4.7,3.8-8.5,8.5-8.5h58.6c4.7,0,8.5,3.8,8.5,8.5
				v112.4C342.3-1389.9,338.5-1386.1,333.8-1386.1z M279.9-1399.2h49.4v-103.3h-49.4V-1399.2z"/>
		</g>
		<g>
			<path fill="#1A1A1A" d="M594.7-1386.2c-34.9,0-63.3-28.9-63.3-64.3v-56.5c0-4.7,3.8-8.4,8.5-8.4h109.7c4.7,0,8.5,3.8,8.5,8.4
				v56.5C658-1415.1,629.6-1386.2,594.7-1386.2z M544.5-1502.5v51.8c0,28.3,22.6,51.4,50.2,51.4c27.7,0,50.2-23,50.2-51.4v-51.8
				H544.5z"/>
		</g>
		<text transform="matrix(1 0 0 1 617.1621 -1485.5303)" fill="#1A1A1A" font-family="'GothamBlack'" font-size="14.0331">TM</text>
	</g>
	<g>
		
			<rect x="-291.4" y="-1825.9" transform="matrix(0.7071 -0.7071 0.7071 0.7071 1208.2567 -729.5502)" fill="#1A1A1A" width="29.7" height="5.3"/>
	</g>
	<g>
		<g>
			<rect x="88.5" y="-1836.1" fill="#1A1A1A" width="4.6" height="25.6"/>
		</g>
		<g>
			<rect x="78" y="-1825.6" fill="#1A1A1A" width="25.6" height="4.6"/>
		</g>
	</g>
	<g>
		<path fill="#1A1A1A" d="M105.6-2091.9H76.1l14.1-29.5L105.6-2091.9z M84.4-2097.2h12.5l-6.5-12.5L84.4-2097.2z"/>
	</g>
	<g>
		<path fill="#1A1A1A" d="M-276.6-2093.6c-7.3,0-13.1-5.8-13.1-13.1s5.8-13.1,13.1-13.1c7.3,0,13.1,5.8,13.1,13.1
			S-269.3-2093.6-276.6-2093.6z M-276.6-2114.7c-4.4,0-7.8,3.6-7.8,7.8c0,4.3,3.6,7.8,7.8,7.8c4.4,0,7.8-3.6,7.8-7.8
			C-268.8-2111.1-272.2-2114.7-276.6-2114.7z"/>
	</g>
	<path fill="#1A1A1A" d="M90.8-1965"/>
	<path fill="#1A1A1A" d="M-268.8-1961.6c-1.4,1.7-3.6,2.8-6,2.8c-4.4,0-7.8-3.6-7.8-7.8c0-2.4,1.1-4.6,2.8-6l-3.7-3.7
		c-2.7,2.4-4.4,5.8-4.4,9.7c0,7.3,5.8,13.1,13.1,13.1c3.8,0,7.3-1.7,9.7-4.4L-268.8-1961.6z"/>
	<g>
		<path fill="#1A1A1A" d="M-80.8-2093.6h-26.3v-26.3h26.3C-80.8-2119.9-80.8-2093.6-80.8-2093.6z M-101.9-2098.9h15.8v-15.8h-15.8
			V-2098.9z"/>
	</g>
	<g>
		<path fill="#1A1A1A" d="M-93.9-1841.9l18.6,18.6l-18.6,18.6l-18.6-18.6L-93.9-1841.9z M-82.8-1823.3l-11.1-11.1l-11.1,11.1
			l11.1,11.1L-82.8-1823.3z"/>
	</g>
	<g>
		<g>
			
				<rect x="-108.8" y="-1967.7" transform="matrix(-0.7071 -0.7071 0.7071 -0.7071 1229.1393 -3420.9563)" fill="#1A1A1A" width="29.7" height="5.3"/>
		</g>
		<g>
			
				<rect x="-108.8" y="-1967.7" transform="matrix(-0.7071 -0.7071 0.7071 -0.7071 1229.1393 -3420.9563)" fill="#1A1A1A" width="29.7" height="5.3"/>
		</g>
		<g>
			
				<rect x="-108.8" y="-1967.7" transform="matrix(-0.7071 -0.7071 0.7071 -0.7071 1229.1393 -3420.9563)" fill="#1A1A1A" width="29.7" height="5.3"/>
		</g>
		<g>
			
				<rect x="-96.6" y="-1979.9" transform="matrix(-0.7071 -0.7071 0.7071 -0.7071 1229.1392 -3420.9563)" fill="#1A1A1A" width="5.3" height="29.7"/>
		</g>
		<g>
			
				<rect x="-96.6" y="-1979.9" transform="matrix(-0.7071 -0.7071 0.7071 -0.7071 1229.1392 -3420.9563)" fill="#1A1A1A" width="5.3" height="29.7"/>
		</g>
		<g>
			
				<rect x="-96.6" y="-1979.9" transform="matrix(-0.7071 -0.7071 0.7071 -0.7071 1229.1392 -3420.9563)" fill="#1A1A1A" width="5.3" height="29.7"/>
		</g>
	</g>
	<polygon fill="#1A1A1A" points="82.5,-1956.7 82.5,-1978.1 77.7,-1978.1 77.7,-1951.9 104,-1951.9 104,-1956.7 	"/>
	<g>
		
			<rect x="256.7" y="-1970.2" transform="matrix(0.7071 -0.7071 0.7071 0.7071 1470.8163 -384.2364)" fill="#1A1A1A" width="29.7" height="5.3"/>
	</g>
	<g>
		<g>
			<rect x="636.7" y="-1980.3" fill="#1A1A1A" width="4.6" height="25.6"/>
		</g>
		<g>
			<rect x="626.1" y="-1969.8" fill="#1A1A1A" width="25.6" height="4.6"/>
		</g>
	</g>
	<g>
		<path fill="#1A1A1A" d="M653.7-1809.1h-29.6l14.1-29.5L653.7-1809.1z M632.5-1814.3h12.5l-6.5-12.5L632.5-1814.3z"/>
	</g>
	<g>
		<path fill="#1A1A1A" d="M271.6-1810.8c-7.3,0-13.1-5.8-13.1-13.1c0-7.3,5.8-13.1,13.1-13.1c7.3,0,13.1,5.8,13.1,13.1
			C284.7-1816.6,278.9-1810.8,271.6-1810.8z M271.6-1831.7c-4.4,0-7.8,3.6-7.8,7.8c0,4.4,3.6,7.8,7.8,7.8c4.4,0,7.8-3.6,7.8-7.8
			C279.6-1828.1,276-1831.7,271.6-1831.7z"/>
	</g>
	<path fill="#1A1A1A" d="M638.9-2109.2"/>
	<path fill="#1A1A1A" d="M279.3-2106c-1.4,1.7-3.6,2.8-6,2.8c-4.4,0-7.8-3.6-7.8-7.8c0-2.4,1.1-4.6,2.8-6l-3.7-3.7
		c-2.7,2.4-4.4,5.8-4.4,9.7c0,7.3,5.8,13.1,13.1,13.1c3.8,0,7.3-1.7,9.7-4.4L279.3-2106z"/>
	<g>
		<path fill="#1A1A1A" d="M467.4-1810.8H441v-26.3h26.3V-1810.8z M446.3-1815.9h15.8v-15.8h-15.8V-1815.9z"/>
	</g>
	<g>
		<path fill="#1A1A1A" d="M454.1-1986.2l18.6,18.6l-18.6,18.6l-18.6-18.6L454.1-1986.2z M465.4-1967.5l-11.1-11.1l-11.1,11.1
			l11.1,11.1L465.4-1967.5z"/>
	</g>
	<g>
		<g>
			
				<rect x="439.3" y="-2111.9" transform="matrix(-0.7071 -0.7071 0.7071 -0.7071 2266.8879 -3279.6077)" fill="#1A1A1A" width="29.7" height="5.3"/>
		</g>
		<g>
			
				<rect x="439.3" y="-2111.9" transform="matrix(-0.7071 -0.7071 0.7071 -0.7071 2266.8879 -3279.6077)" fill="#1A1A1A" width="29.7" height="5.3"/>
		</g>
		<g>
			
				<rect x="439.3" y="-2111.9" transform="matrix(-0.7071 -0.7071 0.7071 -0.7071 2266.8879 -3279.6077)" fill="#1A1A1A" width="29.7" height="5.3"/>
		</g>
		<g>
			
				<rect x="451.6" y="-2124.2" transform="matrix(-0.7071 -0.7071 0.7071 -0.7071 2266.8879 -3279.6077)" fill="#1A1A1A" width="5.3" height="29.7"/>
		</g>
		<g>
			
				<rect x="451.6" y="-2124.2" transform="matrix(-0.7071 -0.7071 0.7071 -0.7071 2266.8879 -3279.6077)" fill="#1A1A1A" width="5.3" height="29.7"/>
		</g>
		<g>
			
				<rect x="451.6" y="-2124.2" transform="matrix(-0.7071 -0.7071 0.7071 -0.7071 2266.8879 -3279.6077)" fill="#1A1A1A" width="5.3" height="29.7"/>
		</g>
	</g>
	<polygon fill="#1A1A1A" points="630.7,-2101 630.7,-2122.5 625.9,-2122.5 625.9,-2096.2 652,-2096.2 652,-2101 	"/>
	<g>
		
			<rect x="-291.4" y="-1398.8" transform="matrix(0.7071 -0.7071 0.7071 0.7071 906.2328 -604.4954)" fill="#1A1A1A" width="29.7" height="5.3"/>
	</g>
	<g>
		<g>
			<rect x="88.5" y="-1409" fill="#1A1A1A" width="4.6" height="25.6"/>
		</g>
		<g>
			<rect x="78" y="-1398.5" fill="#1A1A1A" width="25.6" height="4.6"/>
		</g>
	</g>
	<g>
		<path fill="#1A1A1A" d="M105.6-1664.8H76.1l14.1-29.5L105.6-1664.8z M84.4-1670.1h12.5l-6.5-12.5L84.4-1670.1z"/>
	</g>
	<g>
		<path fill="#1A1A1A" d="M-276.6-1666.4c-7.3,0-13.1-5.8-13.1-13.1s5.8-13.1,13.1-13.1c7.3,0,13.1,5.8,13.1,13.1
			C-263.3-1672.3-269.3-1666.4-276.6-1666.4z M-276.6-1687.4c-4.4,0-7.8,3.6-7.8,7.8c0,4.4,3.6,7.8,7.8,7.8c4.4,0,7.8-3.6,7.8-7.8
			C-268.6-1683.9-272.2-1687.4-276.6-1687.4z"/>
	</g>
	<path fill="#1A1A1A" d="M90.8-1537.9"/>
	<path fill="#1A1A1A" d="M-268.8-1534.5c-1.4,1.7-3.6,2.8-6,2.8c-4.4,0-7.8-3.6-7.8-7.8c0-2.4,1.1-4.6,2.8-6l-3.7-3.7
		c-2.7,2.4-4.4,5.8-4.4,9.7c0,7.3,5.8,13.1,13.1,13.1c3.8,0,7.3-1.7,9.7-4.4L-268.8-1534.5z"/>
	<g>
		<path fill="#1A1A1A" d="M-80.8-1666.4h-26.3v-26.3h26.3C-80.8-1692.7-80.8-1666.4-80.8-1666.4z M-101.9-1671.6h15.8v-15.8h-15.8
			V-1671.6z"/>
	</g>
	<g>
		<path fill="#1A1A1A" d="M-93.9-1414.7l18.6,18.6l-18.6,18.5l-18.6-18.6L-93.9-1414.7z M-82.8-1396.2l-11.1-11.1l-11.1,11.1
			l11.1,11.1L-82.8-1396.2z"/>
	</g>
	<g>
		<g>
			
				<rect x="-108.9" y="-1540.5" transform="matrix(-0.7071 -0.7071 0.7071 -0.7071 926.9534 -2691.6917)" fill="#1A1A1A" width="29.7" height="5.3"/>
		</g>
		<g>
			
				<rect x="-108.9" y="-1540.5" transform="matrix(-0.7071 -0.7071 0.7071 -0.7071 926.9534 -2691.6917)" fill="#1A1A1A" width="29.7" height="5.3"/>
		</g>
		<g>
			
				<rect x="-108.9" y="-1540.5" transform="matrix(-0.7071 -0.7071 0.7071 -0.7071 926.9534 -2691.6917)" fill="#1A1A1A" width="29.7" height="5.3"/>
		</g>
		<g>
			
				<rect x="-96.6" y="-1552.7" transform="matrix(-0.7071 -0.7071 0.7071 -0.7071 926.9534 -2691.6919)" fill="#1A1A1A" width="5.3" height="29.7"/>
		</g>
		<g>
			
				<rect x="-96.6" y="-1552.7" transform="matrix(-0.7071 -0.7071 0.7071 -0.7071 926.9534 -2691.6919)" fill="#1A1A1A" width="5.3" height="29.7"/>
		</g>
		<g>
			
				<rect x="-96.6" y="-1552.7" transform="matrix(-0.7071 -0.7071 0.7071 -0.7071 926.9534 -2691.6919)" fill="#1A1A1A" width="5.3" height="29.7"/>
		</g>
	</g>
	<polygon fill="#1A1A1A" points="82.5,-1529.6 82.5,-1551 77.7,-1551 77.7,-1524.6 104,-1524.6 104,-1529.6 	"/>
</g>
<g>
	<g>
		<path fill="#4656A6" d="M1867.5-1600.1c0-35.6-28.6-64.3-63.9-64.9l0,0h-26.3c-1.1,0-2.1,1-2.1,2.1v24.6c0,1.1-1,2.1-2.1,2.1
			h-25.9c-1.1,0-2.1,1-2.1,2.1v3.8v59.6v32.9c0,1.1,1,2.1,2.1,2.1h55.5l0,0l0,0h0.9l0,0C1838.9-1535.6,1867.5-1564.5,1867.5-1600.1z
			"/>
		<g>
			<path fill="#4656A6" d="M1661.5-1535.9c-34.6,0-62.7-28.7-62.7-64.2c0-35.4,28.2-64.2,62.7-64.2s62.7,28.7,62.7,64.2
				C1724.2-1564.6,1696-1535.9,1661.5-1535.9z M1661.5-1651.3c-27.5,0-49.8,22.9-49.8,51.2c0,28.3,22.3,51.2,49.8,51.2
				s49.8-22.9,49.8-51.2C1711.3-1628.4,1688.9-1651.3,1661.5-1651.3z"/>
		</g>
		<path fill="#4656A6" d="M1661.5-1513.6c0-1.3-1-2.3-2.3-2.1c-33.9,1.3-60.9,29.7-60.9,64.6c0,35.7,28.3,64.7,63.2,64.7
			c34.1,0,61.9-27.7,63.2-62.5c0-1.3-1-2.3-2.1-2.3h-58.8c-1.1,0-2.1-1-2.1-2.1v-60.3H1661.5z"/>
		<path fill="#4656A6" d="M1526.9-1599.1c0-0.6,0.3-1.1,0.6-1.6l21.9-21.9l21.1-21.1c0.9-0.9,0.9-2.3,0-3.1
			c-5.4-5.3-11.7-9.7-18.6-12.7c-7.7-3.4-16.1-5.3-24.9-5.3c-17.5,0-33.3,7.3-44.7,18.9c-11.4,11.7-18.5,27.9-18.5,45.7
			c0,17.9,7.1,34,18.5,45.7c11,11.2,25.9,18.4,42.4,18.9c1.3,0,2.3-1,2.3-2.1v-30.2L1526.9-1599.1L1526.9-1599.1z"/>
		<g>
			<path fill="#4656A6" d="M1547.2-1386.1h-58.6c-4.7,0-8.5-3.8-8.5-8.5V-1507c0-4.7,3.8-8.5,8.5-8.5h58.6c4.7,0,8.5,3.8,8.5,8.5
				v112.4C1555.8-1389.9,1551.9-1386.1,1547.2-1386.1z M1493.2-1399.2h49.4v-103.3h-49.4V-1399.2z"/>
		</g>
		<g>
			<path fill="#4656A6" d="M1808.1-1386.2c-34.9,0-63.3-28.9-63.3-64.3v-56.5c0-4.7,3.8-8.4,8.5-8.4h109.7c4.7,0,8.5,3.8,8.5,8.4
				v56.5C1871.5-1415.1,1843-1386.2,1808.1-1386.2z M1757.9-1502.5v51.8c0,28.3,22.6,51.4,50.2,51.4c27.7,0,50.2-23,50.2-51.4v-51.8
				H1757.9z"/>
		</g>
		<text transform="matrix(1 0 0 1 1830.5352 -1485.5303)" fill="#4656A6" font-family="'GothamBlack'" font-size="14.0331">TM</text>
	</g>
	<g>
		
			<rect x="922" y="-1826" transform="matrix(0.7071 -0.7071 0.7071 0.7071 1563.7042 128.459)" fill="#4656A6" width="29.7" height="5.3"/>
	</g>
	<g>
		<g>
			<rect x="1301.9" y="-1836.1" fill="#4656A6" width="4.6" height="25.6"/>
		</g>
		<g>
			<rect x="1291.4" y="-1825.6" fill="#4656A6" width="25.6" height="4.6"/>
		</g>
	</g>
	<g>
		<path fill="#4656A6" d="M1319-2091.9h-29.6l14.1-29.5L1319-2091.9z M1297.8-2097.2h12.5l-6.5-12.5L1297.8-2097.2z"/>
	</g>
	<g>
		<path fill="#4656A6" d="M936.9-2093.6c-7.3,0-13.1-5.8-13.1-13.1s5.8-13.1,13.1-13.1c7.3,0,13.1,5.8,13.1,13.1
			S944.1-2093.6,936.9-2093.6z M936.9-2114.7c-4.4,0-7.8,3.6-7.8,7.8c0,4.3,3.6,7.8,7.8,7.8c4.4,0,7.8-3.6,7.8-7.8
			C944.7-2111.1,941.1-2114.7,936.9-2114.7z"/>
	</g>
	<path fill="#4656A6" d="M1304.2-1965"/>
	<path fill="#4656A6" d="M944.5-1961.6c-1.4,1.7-3.6,2.8-6,2.8c-4.4,0-7.8-3.6-7.8-7.8c0-2.4,1.1-4.6,2.8-6l-3.7-3.7
		c-2.7,2.4-4.4,5.8-4.4,9.7c0,7.3,5.8,13.1,13.1,13.1c3.8,0,7.3-1.7,9.7-4.4L944.5-1961.6z"/>
	<g>
		<path fill="#4656A6" d="M1132.6-2093.6h-26.3v-26.3h26.3V-2093.6z M1111.6-2098.9h15.8v-15.8h-15.8V-2098.9z"/>
	</g>
	<g>
		<path fill="#4656A6" d="M1119.4-1841.9l18.6,18.6l-18.6,18.6l-18.6-18.6L1119.4-1841.9z M1130.6-1823.3l-11.1-11.1l-11.1,11.1
			l11.1,11.1L1130.6-1823.3z"/>
	</g>
	<g>
		<g>
			
				<rect x="1104.6" y="-1967.6" transform="matrix(-0.7071 -0.7071 0.7071 -0.7071 3300.54 -2562.8701)" fill="#4656A6" width="29.7" height="5.3"/>
		</g>
		<g>
			
				<rect x="1104.6" y="-1967.6" transform="matrix(-0.7071 -0.7071 0.7071 -0.7071 3300.54 -2562.8701)" fill="#4656A6" width="29.7" height="5.3"/>
		</g>
		<g>
			
				<rect x="1104.6" y="-1967.6" transform="matrix(-0.7071 -0.7071 0.7071 -0.7071 3300.54 -2562.8701)" fill="#4656A6" width="29.7" height="5.3"/>
		</g>
		<g>
			
				<rect x="1116.8" y="-1979.9" transform="matrix(-0.7071 -0.7071 0.7071 -0.7071 3300.5398 -2562.8701)" fill="#4656A6" width="5.3" height="29.7"/>
		</g>
		<g>
			
				<rect x="1116.8" y="-1979.9" transform="matrix(-0.7071 -0.7071 0.7071 -0.7071 3300.5398 -2562.8701)" fill="#4656A6" width="5.3" height="29.7"/>
		</g>
		<g>
			
				<rect x="1116.8" y="-1979.9" transform="matrix(-0.7071 -0.7071 0.7071 -0.7071 3300.5398 -2562.8701)" fill="#4656A6" width="5.3" height="29.7"/>
		</g>
	</g>
	<polygon fill="#4656A6" points="1295.8,-1956.7 1295.8,-1978.1 1291,-1978.1 1291,-1951.9 1317.3,-1951.9 1317.3,-1956.7 	"/>
	<g>
		
			<rect x="1470.2" y="-1970.2" transform="matrix(0.7071 -0.7071 0.7071 0.7071 1826.2638 473.7724)" fill="#4656A6" width="29.7" height="5.3"/>
	</g>
	<g>
		<g>
			<rect x="1850.1" y="-1980.3" fill="#4656A6" width="4.6" height="25.6"/>
		</g>
		<g>
			<rect x="1839.6" y="-1969.8" fill="#4656A6" width="25.6" height="4.6"/>
		</g>
	</g>
	<g>
		<path fill="#4656A6" d="M1867-1809.1h-29.6l14.1-29.5L1867-1809.1z M1845.8-1814.3h12.5l-6.5-12.5L1845.8-1814.3z"/>
	</g>
	<g>
		<path fill="#4656A6" d="M1485-1810.8c-7.3,0-13.1-5.8-13.1-13.1c0-7.3,5.8-13.1,13.1-13.1s13.1,5.8,13.1,13.1
			C1498.1-1816.6,1492.3-1810.8,1485-1810.8z M1485-1831.7c-4.4,0-7.8,3.6-7.8,7.8c0,4.4,3.6,7.8,7.8,7.8c4.4,0,7.8-3.6,7.8-7.8
			C1492.9-1828.1,1489.3-1831.7,1485-1831.7z"/>
	</g>
	<path fill="#4656A6" d="M1852.4-2109.2"/>
	<path fill="#4656A6" d="M1492.7-2106c-1.4,1.7-3.6,2.8-6,2.8c-4.4,0-7.8-3.6-7.8-7.8c0-2.4,1.1-4.6,2.8-6l-3.7-3.7
		c-2.7,2.4-4.4,5.8-4.4,9.7c0,7.3,5.8,13.1,13.1,13.1c3.8,0,7.3-1.7,9.7-4.4L1492.7-2106z"/>
	<g>
		<path fill="#4656A6" d="M1680.7-1810.8h-26.3v-26.3h26.3V-1810.8z M1659.8-1815.9h15.8v-15.8h-15.8V-1815.9z"/>
	</g>
	<g>
		<path fill="#4656A6" d="M1667.6-1986.2l18.6,18.6l-18.6,18.6l-18.6-18.6L1667.6-1986.2z M1678.7-1967.5l-11.1-11.1l-11.1,11.1
			l11.1,11.1L1678.7-1967.5z"/>
	</g>
	<g>
		<g>
			
				<rect x="1652.8" y="-2111.9" transform="matrix(-0.7071 -0.7071 0.7071 -0.7071 4338.2886 -2421.5215)" fill="#4656A6" width="29.7" height="5.3"/>
		</g>
		<g>
			
				<rect x="1652.8" y="-2111.9" transform="matrix(-0.7071 -0.7071 0.7071 -0.7071 4338.2886 -2421.5215)" fill="#4656A6" width="29.7" height="5.3"/>
		</g>
		<g>
			
				<rect x="1652.8" y="-2111.9" transform="matrix(-0.7071 -0.7071 0.7071 -0.7071 4338.2886 -2421.5215)" fill="#4656A6" width="29.7" height="5.3"/>
		</g>
		<g>
			
				<rect x="1664.9" y="-2124.2" transform="matrix(-0.7071 -0.7071 0.7071 -0.7071 4338.188 -2421.7644)" fill="#4656A6" width="5.3" height="29.7"/>
		</g>
		<g>
			
				<rect x="1664.9" y="-2124.2" transform="matrix(-0.7071 -0.7071 0.7071 -0.7071 4338.188 -2421.7644)" fill="#4656A6" width="5.3" height="29.7"/>
		</g>
		<g>
			
				<rect x="1664.9" y="-2124.2" transform="matrix(-0.7071 -0.7071 0.7071 -0.7071 4338.188 -2421.7644)" fill="#4656A6" width="5.3" height="29.7"/>
		</g>
	</g>
	<polygon fill="#4656A6" points="1844,-2101 1844,-2122.5 1839.2,-2122.5 1839.2,-2096.2 1865.5,-2096.2 1865.5,-2101 	"/>
	<g>
		
			<rect x="922" y="-1398.9" transform="matrix(0.7071 -0.7071 0.7071 0.7071 1261.6804 253.5137)" fill="#4656A6" width="29.7" height="5.3"/>
	</g>
	<g>
		<g>
			<rect x="1301.9" y="-1409" fill="#4656A6" width="4.6" height="25.6"/>
		</g>
		<g>
			<rect x="1291.4" y="-1398.5" fill="#4656A6" width="25.6" height="4.6"/>
		</g>
	</g>
	<g>
		<path fill="#4656A6" d="M1319-1664.8h-29.6l14.1-29.5L1319-1664.8z M1297.8-1670.1h12.5l-6.5-12.5L1297.8-1670.1z"/>
	</g>
	<g>
		<path fill="#4656A6" d="M936.9-1666.4c-7.3,0-13.1-5.8-13.1-13.1s5.8-13.1,13.1-13.1c7.3,0,13.1,5.8,13.1,13.1
			S944.1-1666.4,936.9-1666.4z M936.9-1687.4c-4.4,0-7.8,3.6-7.8,7.8c0,4.4,3.6,7.8,7.8,7.8c4.4,0,7.8-3.6,7.8-7.8
			S941.1-1687.4,936.9-1687.4z"/>
	</g>
	<path fill="#4656A6" d="M1304.2-1537.9"/>
	<path fill="#4656A6" d="M944.5-1534.5c-1.4,1.7-3.6,2.8-6,2.8c-4.4,0-7.8-3.6-7.8-7.8c0-2.4,1.1-4.6,2.8-6l-3.7-3.7
		c-2.7,2.4-4.4,5.8-4.4,9.7c0,7.3,5.8,13.1,13.1,13.1c3.8,0,7.3-1.7,9.7-4.4L944.5-1534.5z"/>
	<g>
		<path fill="#4656A6" d="M1132.6-1666.4h-26.3v-26.3h26.3V-1666.4z M1111.6-1671.6h15.8v-15.8h-15.8V-1671.6z"/>
	</g>
	<g>
		<path fill="#4656A6" d="M1119.4-1414.7l18.6,18.6l-18.6,18.6l-18.6-18.6L1119.4-1414.7z M1130.6-1396.2l-11.1-11.1l-11.1,11.1
			l11.1,11.1L1130.6-1396.2z"/>
	</g>
	<g>
		<g>
			
				<rect x="1104.6" y="-1540.4" transform="matrix(-0.7071 -0.7071 0.7071 -0.7071 2998.3535 -1833.6052)" fill="#4656A6" width="29.7" height="5.3"/>
		</g>
		<g>
			
				<rect x="1104.6" y="-1540.4" transform="matrix(-0.7071 -0.7071 0.7071 -0.7071 2998.3535 -1833.6052)" fill="#4656A6" width="29.7" height="5.3"/>
		</g>
		<g>
			
				<rect x="1104.6" y="-1540.4" transform="matrix(-0.7071 -0.7071 0.7071 -0.7071 2998.3535 -1833.6052)" fill="#4656A6" width="29.7" height="5.3"/>
		</g>
		<g>
			
				<rect x="1116.8" y="-1552.6" transform="matrix(-0.7071 -0.7071 0.7071 -0.7071 2998.3533 -1833.6053)" fill="#4656A6" width="5.3" height="29.7"/>
		</g>
		<g>
			
				<rect x="1116.8" y="-1552.6" transform="matrix(-0.7071 -0.7071 0.7071 -0.7071 2998.3533 -1833.6053)" fill="#4656A6" width="5.3" height="29.7"/>
		</g>
		<g>
			
				<rect x="1116.8" y="-1552.6" transform="matrix(-0.7071 -0.7071 0.7071 -0.7071 2998.3533 -1833.6053)" fill="#4656A6" width="5.3" height="29.7"/>
		</g>
	</g>
	<polygon fill="#4656A6" points="1295.8,-1529.6 1295.8,-1551 1291,-1551 1291,-1524.6 1317.3,-1524.6 1317.3,-1529.6 	"/>
</g>
<g>
	<rect x="826.3" y="-1269.8" fill="#4656A6" width="1138.2" height="853.6"/>
	<g>
		<g>
			<path fill="#FFFFFF" d="M1867.5-693.1c0-35.6-28.6-64.3-63.9-64.9l0,0h-26.3c-1.1,0-2.1,1-2.1,2.1v24.6c0,1.1-1,2.1-2.1,2.1
				h-25.9c-1.1,0-2.1,1-2.1,2.1v3.8v59.6v32.9c0,1.1,1,2.1,2.1,2.1h55.5l0,0l0,0h0.9l0,0C1838.9-628.6,1867.5-657.5,1867.5-693.1z"
				/>
			<g>
				<path fill="#FFFFFF" d="M1661.5-628.9c-34.6,0-62.7-28.7-62.7-64.2c0-35.4,28.2-64.2,62.7-64.2s62.7,28.7,62.7,64.2
					S1696-628.9,1661.5-628.9z M1661.5-744.3c-27.5,0-49.8,22.9-49.8,51.2s22.3,51.2,49.8,51.2s49.8-22.9,49.8-51.2
					S1688.9-744.3,1661.5-744.3z"/>
			</g>
			<path fill="#FFFFFF" d="M1661.5-606.6c0-1.3-1-2.3-2.3-2.1c-33.9,1.3-60.9,29.7-60.9,64.6c0,35.7,28.3,64.7,63.2,64.7
				c34.1,0,61.9-27.7,63.2-62.5c0-1.3-1-2.3-2.1-2.3h-58.8c-1.1,0-2.1-1-2.1-2.1v-60.3H1661.5z"/>
			<path fill="#FFFFFF" d="M1526.9-692.2c0-0.6,0.3-1.1,0.6-1.6l21.9-21.9l21.1-21.1c0.9-0.9,0.9-2.3,0-3.1
				c-5.4-5.3-11.7-9.7-18.6-12.7c-7.7-3.4-16.1-5.3-24.9-5.3c-17.5,0-33.3,7.3-44.7,18.9s-18.5,27.9-18.5,45.7
				c0,17.9,7.1,34,18.5,45.7c11,11.2,25.9,18.4,42.4,18.9c1.3,0,2.3-1,2.3-2.1v-30L1526.9-692.2L1526.9-692.2z"/>
			<g>
				<path fill="#FFFFFF" d="M1547.2-479.1h-58.6c-4.7,0-8.5-3.8-8.5-8.5V-600c0-4.7,3.8-8.5,8.5-8.5h58.6c4.7,0,8.5,3.8,8.5,8.5
					v112.4C1555.8-482.9,1551.9-479.1,1547.2-479.1z M1493.2-492.2h49.4v-103.3h-49.4V-492.2z"/>
			</g>
			<g>
				<path fill="#FFFFFF" d="M1808.1-479.2c-34.9,0-63.3-28.9-63.3-64.3V-600c0-4.7,3.8-8.4,8.5-8.4h109.7c4.7,0,8.5,3.8,8.5,8.4
					v56.5C1871.5-508.1,1843-479.2,1808.1-479.2z M1757.9-595.5v51.8c0,28.3,22.6,51.4,50.2,51.4c27.7,0,50.2-23,50.2-51.4v-51.8
					H1757.9z"/>
			</g>
			<text transform="matrix(1 0 0 1 1830.5352 -578.5835)" fill="#FFFFFF" font-family="'GothamBlack'" font-size="14.0331">TM</text>
		</g>
		<g>
			
				<rect x="922" y="-919" transform="matrix(0.7071 -0.7071 0.7071 0.7071 922.4062 394.0734)" fill="#FFFFFF" width="29.7" height="5.3"/>
		</g>
		<g>
			<g>
				<rect x="1301.9" y="-929.1" fill="#FFFFFF" width="4.6" height="25.6"/>
			</g>
			<g>
				<rect x="1291.4" y="-918.6" fill="#FFFFFF" width="25.6" height="4.6"/>
			</g>
		</g>
		<g>
			<path fill="#FFFFFF" d="M1319-1185h-29.6l14.1-29.5L1319-1185z M1297.8-1190.3h12.5l-6.5-12.5L1297.8-1190.3z"/>
		</g>
		<g>
			<path fill="#FFFFFF" d="M936.9-1186.6c-7.3,0-13.1-5.8-13.1-13.1c0-7.3,5.8-13.1,13.1-13.1c7.3,0,13.1,5.8,13.1,13.1
				C950-1192.6,944.1-1186.6,936.9-1186.6z M936.9-1207.7c-4.4,0-7.8,3.6-7.8,7.8c0,4.4,3.6,7.8,7.8,7.8c4.4,0,7.8-3.6,7.8-7.8
				S941.1-1207.7,936.9-1207.7z"/>
		</g>
		<path fill="#FFFFFF" d="M1304.2-1058"/>
		<path fill="#FFFFFF" d="M944.5-1054.7c-1.4,1.7-3.6,2.8-6,2.8c-4.4,0-7.8-3.6-7.8-7.8c0-2.4,1.1-4.6,2.8-6l-3.7-3.7
			c-2.7,2.4-4.4,5.8-4.4,9.7c0,7.3,5.8,13.1,13.1,13.1c3.8,0,7.3-1.7,9.7-4.4L944.5-1054.7z"/>
		<g>
			<path fill="#FFFFFF" d="M1132.6-1186.6h-26.3v-26.3h26.3V-1186.6z M1111.6-1191.9h15.8v-15.8h-15.8V-1191.9z"/>
		</g>
		<g>
			<path fill="#FFFFFF" d="M1119.4-934.9l18.6,18.6l-18.6,18.6l-18.6-18.6L1119.4-934.9z M1130.6-916.3l-11.1-11.1l-11.1,11.1
				l11.1,11.1L1130.6-916.3z"/>
		</g>
		<g>
			<g>
				
					<rect x="1104.6" y="-1060.7" transform="matrix(-0.7071 -0.7071 0.7071 -0.7071 2659.1738 -1014.5917)" fill="#FFFFFF" width="29.7" height="5.3"/>
			</g>
			<g>
				
					<rect x="1104.6" y="-1060.7" transform="matrix(-0.7071 -0.7071 0.7071 -0.7071 2659.1738 -1014.5917)" fill="#FFFFFF" width="29.7" height="5.3"/>
			</g>
			<g>
				
					<rect x="1104.6" y="-1060.7" transform="matrix(-0.7071 -0.7071 0.7071 -0.7071 2659.1738 -1014.5917)" fill="#FFFFFF" width="29.7" height="5.3"/>
			</g>
			<g>
				
					<rect x="1116.8" y="-1072.9" transform="matrix(-0.7071 -0.7071 0.7071 -0.7071 2659.1738 -1014.5917)" fill="#FFFFFF" width="5.3" height="29.7"/>
			</g>
			<g>
				
					<rect x="1116.8" y="-1072.9" transform="matrix(-0.7071 -0.7071 0.7071 -0.7071 2659.1738 -1014.5917)" fill="#FFFFFF" width="5.3" height="29.7"/>
			</g>
			<g>
				
					<rect x="1116.8" y="-1072.9" transform="matrix(-0.7071 -0.7071 0.7071 -0.7071 2659.1738 -1014.5917)" fill="#FFFFFF" width="5.3" height="29.7"/>
			</g>
		</g>
		<polygon fill="#FFFFFF" points="1295.8,-1049.7 1295.8,-1071.2 1291,-1071.2 1291,-1044.9 1317.3,-1044.9 1317.3,-1049.7 		"/>
		<g>
			
				<rect x="1470.1" y="-1063.3" transform="matrix(0.7071 -0.7071 0.7071 0.7071 1184.9657 739.3868)" fill="#FFFFFF" width="29.7" height="5.3"/>
		</g>
		<g>
			<g>
				<rect x="1850.1" y="-1073.5" fill="#FFFFFF" width="4.6" height="25.6"/>
			</g>
			<g>
				<rect x="1839.6" y="-1063" fill="#FFFFFF" width="25.6" height="4.6"/>
			</g>
		</g>
		<g>
			<path fill="#FFFFFF" d="M1867-902.1h-29.6l14.1-29.5L1867-902.1z M1845.8-907.3h12.5l-6.5-12.5L1845.8-907.3z"/>
		</g>
		<g>
			<path fill="#FFFFFF" d="M1485-903.8c-7.3,0-13.1-5.8-13.1-13.1c0-7.3,5.8-13.1,13.1-13.1s13.1,5.8,13.1,13.1
				C1498.1-909.6,1492.3-903.8,1485-903.8z M1485-924.8c-4.4,0-7.8,3.6-7.8,7.8c0,4.4,3.6,7.8,7.8,7.8c4.4,0,7.8-3.6,7.8-7.8
				S1489.3-924.8,1485-924.8z"/>
		</g>
		<path fill="#FFFFFF" d="M1852.4-1202.4"/>
		<path fill="#FFFFFF" d="M1492.7-1199c-1.4,1.7-3.6,2.8-6,2.8c-4.4,0-7.8-3.6-7.8-7.8c0-2.4,1.1-4.6,2.8-6l-3.7-3.7
			c-2.7,2.4-4.4,5.8-4.4,9.7c0,7.3,5.8,13.1,13.1,13.1c3.8,0,7.3-1.7,9.7-4.4L1492.7-1199z"/>
		<g>
			<path fill="#FFFFFF" d="M1680.7-903.8h-26.3v-26.3h26.3V-903.8z M1659.8-909h15.8v-15.8h-15.8V-909z"/>
		</g>
		<g>
			<path fill="#FFFFFF" d="M1667.6-1079.2l18.6,18.6l-18.6,18.6l-18.6-18.6L1667.6-1079.2z M1678.7-1060.7l-11.1-11.1l-11.1,11.1
				l11.1,11.1L1678.7-1060.7z"/>
		</g>
		<g>
			<g>
				
					<rect x="1652.7" y="-1204.9" transform="matrix(-0.7071 -0.7071 0.7071 -0.7071 3696.9231 -873.2432)" fill="#FFFFFF" width="29.7" height="5.3"/>
			</g>
			<g>
				
					<rect x="1652.7" y="-1204.9" transform="matrix(-0.7071 -0.7071 0.7071 -0.7071 3696.9231 -873.2432)" fill="#FFFFFF" width="29.7" height="5.3"/>
			</g>
			<g>
				
					<rect x="1652.7" y="-1204.9" transform="matrix(-0.7071 -0.7071 0.7071 -0.7071 3696.9231 -873.2432)" fill="#FFFFFF" width="29.7" height="5.3"/>
			</g>
			<g>
				
					<rect x="1664.9" y="-1217.2" transform="matrix(-0.7071 -0.7071 0.7071 -0.7071 3696.8223 -873.4861)" fill="#FFFFFF" width="5.3" height="29.7"/>
			</g>
			<g>
				
					<rect x="1664.9" y="-1217.2" transform="matrix(-0.7071 -0.7071 0.7071 -0.7071 3696.8223 -873.4861)" fill="#FFFFFF" width="5.3" height="29.7"/>
			</g>
			<g>
				
					<rect x="1664.9" y="-1217.2" transform="matrix(-0.7071 -0.7071 0.7071 -0.7071 3696.8223 -873.4861)" fill="#FFFFFF" width="5.3" height="29.7"/>
			</g>
		</g>
		<polygon fill="#FFFFFF" points="1844,-1194.1 1844,-1215.5 1839.2,-1215.5 1839.2,-1189.2 1865.5,-1189.2 1865.5,-1194.1 		"/>
		<g>
			
				<rect x="922.1" y="-491.8" transform="matrix(0.7071 -0.7071 0.7071 0.7071 620.3407 519.2289)" fill="#FFFFFF" width="29.7" height="5.3"/>
		</g>
		<g>
			<g>
				<rect x="1301.9" y="-502" fill="#FFFFFF" width="4.6" height="25.6"/>
			</g>
			<g>
				<rect x="1291.4" y="-491.5" fill="#FFFFFF" width="25.6" height="4.6"/>
			</g>
		</g>
		<g>
			<path fill="#FFFFFF" d="M1319-757.8h-29.6l14.1-29.5L1319-757.8z M1297.8-763.1h12.5l-6.5-12.5L1297.8-763.1z"/>
		</g>
		<g>
			<path fill="#FFFFFF" d="M936.9-759.5c-7.3,0-13.1-5.8-13.1-13.1c0-7.3,5.8-13.1,13.1-13.1c7.3,0,13.1,5.8,13.1,13.1
				S944.1-759.5,936.9-759.5z M936.9-780.4c-4.4,0-7.8,3.6-7.8,7.8s3.6,7.8,7.8,7.8c4.4,0,7.8-3.6,7.8-7.8S941.1-780.4,936.9-780.4z
				"/>
		</g>
		<path fill="#FFFFFF" d="M1304.2-630.9"/>
		<path fill="#FFFFFF" d="M944.5-627.5c-1.4,1.7-3.6,2.8-6,2.8c-4.4,0-7.8-3.6-7.8-7.8c0-2.4,1.1-4.6,2.8-6l-3.7-3.7
			c-2.7,2.4-4.4,5.8-4.4,9.7c0,7.3,5.8,13.1,13.1,13.1c3.8,0,7.3-1.7,9.7-4.4L944.5-627.5z"/>
		<g>
			<path fill="#FFFFFF" d="M1132.6-759.5h-26.3v-26.3h26.3V-759.5z M1111.6-764.8h15.8v-15.8h-15.8V-764.8z"/>
		</g>
		<g>
			<path fill="#FFFFFF" d="M1119.4-507.8l18.6,18.6l-18.6,18.6l-18.6-18.6L1119.4-507.8z M1130.6-489.2l-11.1-11.1l-11.1,11.1
				l11.1,11.1L1130.6-489.2z"/>
		</g>
		<g>
			<g>
				
					<rect x="1104.5" y="-633.4" transform="matrix(-0.7071 -0.7071 0.7071 -0.7071 2356.9878 -285.327)" fill="#FFFFFF" width="29.7" height="5.3"/>
			</g>
			<g>
				
					<rect x="1104.5" y="-633.4" transform="matrix(-0.7071 -0.7071 0.7071 -0.7071 2356.9878 -285.327)" fill="#FFFFFF" width="29.7" height="5.3"/>
			</g>
			<g>
				
					<rect x="1104.5" y="-633.4" transform="matrix(-0.7071 -0.7071 0.7071 -0.7071 2356.9878 -285.327)" fill="#FFFFFF" width="29.7" height="5.3"/>
			</g>
			<g>
				
					<rect x="1116.8" y="-645.7" transform="matrix(-0.7071 -0.7071 0.7071 -0.7071 2356.9878 -285.327)" fill="#FFFFFF" width="5.3" height="29.7"/>
			</g>
			<g>
				
					<rect x="1116.8" y="-645.7" transform="matrix(-0.7071 -0.7071 0.7071 -0.7071 2356.9878 -285.327)" fill="#FFFFFF" width="5.3" height="29.7"/>
			</g>
			<g>
				
					<rect x="1116.8" y="-645.7" transform="matrix(-0.7071 -0.7071 0.7071 -0.7071 2356.9878 -285.327)" fill="#FFFFFF" width="5.3" height="29.7"/>
			</g>
		</g>
		<polygon fill="#FFFFFF" points="1295.8,-622.6 1295.8,-644 1291,-644 1291,-617.8 1317.3,-617.8 1317.3,-622.6 		"/>
	</g>
</g>
<path fill="#1A1A1A" d="M-1818.4-1896.5c0-69.7-56.1-126.3-125.5-127.3l0,0h-51.6c-2.4,0-4.3,1.8-4.3,4.3v48.4
	c0,2.4-1.8,4.3-4.3,4.3h-50.5c-2.4,0-4.3,1.8-4.3,4.3v7.7v117.1v64.6c0,2.4,1.8,4.3,4.3,4.3h108.8l0,0l0,0h1.8l0,0
	C-1874.4-1770.2-1818.4-1826.8-1818.4-1896.5z"/>
<ellipse fill="#1A1A1A" cx="-2222.7" cy="-1896.5" rx="123.9" ry="126.9"/>
<path fill="#1A1A1A" d="M-2222.7-1726.2c0-2.4-2-4.4-4.4-4.3c-66.4,2.4-119.5,58.3-119.5,126.9c0,70.1,55.5,126.9,123.9,126.9
	c67,0,121.5-54.5,123.8-122.5c0.1-2.4-1.8-4.4-4.3-4.4h-115.2c-2.4,0-4.3-1.8-4.3-4.3V-1726.2z"/>
<path fill="#1A1A1A" d="M-2486.8-1894.8c0-1.1,0.4-2.3,1.3-3l43.1-43.1l41.3-41.3c1.7-1.7,1.7-4.4,0-6.1
	c-10.7-10.4-23-18.9-36.7-24.9c-14.9-6.7-31.6-10.2-48.9-10.2c-34.3,0-65.2,14.2-87.6,37.1s-36.3,54.6-36.3,89.8
	c0,35,13.8,66.7,36.3,89.8c21.5,21.9,50.8,36,83.2,37.1c2.4,0.1,4.4-1.8,4.4-4.3v-59V-1894.8z"/>
<path fill="#1A1A1A" d="M-2440.7-1477.1h-127.5c-2.4,0-4.3-1.8-4.3-4.3V-1726c0-2.4,1.8-4.3,4.3-4.3h127.5c2.4,0,4.3,1.8,4.3,4.3
	v244.6C-2436.4-1479.1-2438.4-1477.1-2440.7-1477.1z"/>
<path fill="#875152" d="M-3655.4-1424.5c0,0.3,0,0.4,0,0.7h27.7c0-0.1,0-0.1,0-0.3L-3655.4-1424.5z"/>
<path fill="#1A1A1A" d="M-1815.3-1730.7h-239.3c-2.4,0-4.3,1.8-4.3,4.3v123.2l0,0c0,69.7,55.5,126.3,123.9,126.3
	s123.9-56.6,123.9-126.3l0,0v-123.2C-1811-1728.7-1813-1730.7-1815.3-1730.7z"/>
<text transform="matrix(1 0 0 1 -1865.3302 -1697.0588)" fill="#FFFFFF" font-family="'GothamBlack'" font-size="27.5389">TM</text>
<g>
	<rect x="-1582.2" y="-2176.8" fill="#1A1A1A" width="1138.2" height="853.6"/>
	<path fill="#FFFFFF" d="M-620.5-1896.5c0-69.7-56.1-126.3-125.5-127.3l0,0h-51.6c-2.4,0-4.3,1.8-4.3,4.3v48.4
		c0,2.4-1.8,4.3-4.3,4.3h-50.5c-2.4,0-4.3,1.8-4.3,4.3v7.7v117.1v64.6c0,2.4,1.8,4.3,4.3,4.3h108.8l0,0l0,0h1.8l0,0
		C-676.5-1770.2-620.5-1826.8-620.5-1896.5z"/>
	<ellipse fill="#FFFFFF" cx="-1024.8" cy="-1896.5" rx="123.9" ry="126.9"/>
	<path fill="#FFFFFF" d="M-1024.8-1726.2c0-2.4-2-4.4-4.4-4.3c-66.4,2.4-119.5,58.3-119.5,126.9c0,70.1,55.5,126.9,123.9,126.9
		c67,0,121.5-54.5,123.8-122.5c0.1-2.4-1.8-4.4-4.3-4.4h-115.2c-2.4,0-4.3-1.8-4.3-4.3V-1726.2z"/>
	<path fill="#FFFFFF" d="M-1288.8-1894.8c0-1.1,0.4-2.3,1.3-3l43.1-43.1l41.3-41.3c1.7-1.7,1.7-4.4,0-6.1
		c-10.7-10.4-23-18.9-36.7-24.9c-14.9-6.7-31.6-10.2-48.9-10.2c-34.3,0-65.2,14.2-87.6,37.1s-36.3,54.6-36.3,89.8
		c0,35,13.8,66.7,36.3,89.8c21.5,21.9,50.8,36,83.2,37.1c2.4,0.1,4.4-1.8,4.4-4.3v-59V-1894.8z"/>
	<path fill="#FFFFFF" d="M-1242.8-1477.1h-127.5c-2.4,0-4.3-1.8-4.3-4.3V-1726c0-2.4,1.8-4.3,4.3-4.3h127.5c2.4,0,4.3,1.8,4.3,4.3
		v244.6C-1238.5-1479.1-1240.5-1477.1-1242.8-1477.1z"/>
	<path fill="#FFFFFF" d="M-617.3-1730.7h-239.3c-2.4,0-4.3,1.8-4.3,4.3v123.2l0,0c0,69.7,55.5,126.3,123.9,126.3
		s123.9-56.6,123.9-126.3l0,0v-123.2C-613.1-1728.7-615-1730.7-617.3-1730.7z"/>
	<text transform="matrix(1 0 0 1 -667.3926 -1697.0632)" fill="#1A1A1A" font-family="'GothamBlack'" font-size="27.5389">TM</text>
</g>
<rect x="-3981.1" y="-2181.1" fill="#4656A6" width="1138.2" height="853.6"/>
<path fill="#FFFFFF" d="M-3019.5-1900.8c0-69.7-56.1-126.3-125.5-127.3l0,0h-51.6c-2.4,0-4.3,1.8-4.3,4.3v48.4
	c0,2.4-1.8,4.3-4.3,4.3h-50.5c-2.4,0-4.3,1.8-4.3,4.3v7.7v117.1v64.6c0,2.4,1.8,4.3,4.3,4.3h108.8l0,0l0,0h1.8l0,0
	C-3075.5-1774.5-3019.5-1831.1-3019.5-1900.8z"/>
<ellipse fill="#FFFFFF" cx="-3423.7" cy="-1900.8" rx="123.9" ry="126.9"/>
<path fill="#FFFFFF" d="M-3423.7-1730.5c0-2.4-2-4.4-4.4-4.3c-66.4,2.4-119.5,58.3-119.5,126.9c0,70.1,55.5,126.9,123.9,126.9
	c67,0,121.5-54.5,123.8-122.5c0.1-2.4-1.8-4.4-4.3-4.4h-115.2c-2.4,0-4.3-1.8-4.3-4.3V-1730.5z"/>
<path fill="#FFFFFF" d="M-3687.9-1899.1c0-1.1,0.4-2.3,1.3-3l43.1-43.1l41.3-41.3c1.7-1.7,1.7-4.4,0-6.1
	c-10.7-10.4-23-18.9-36.7-24.9c-14.9-6.7-31.6-10.2-48.9-10.2c-34.3,0-65.2,14.2-87.6,37.1c-22.5,22.9-36.3,54.6-36.3,89.8
	c0,35.1,13.8,66.7,36.3,89.8c21.5,21.9,50.8,36,83.2,37.1c2.4,0.1,4.4-1.8,4.4-4.3v-59V-1899.1z"/>
<path fill="#FFFFFF" d="M-3641.8-1481.4h-127.5c-2.4,0-4.3-1.8-4.3-4.3v-244.6c0-2.4,1.8-4.3,4.3-4.3h127.5c2.4,0,4.3,1.8,4.3,4.3
	v244.6C-3637.5-1483.4-3639.3-1481.4-3641.8-1481.4z"/>
<path fill="#FFFFFF" d="M-3016.3-1734.9h-239.3c-2.4,0-4.3,1.8-4.3,4.3v123.2l0,0c0,69.7,55.5,126.3,123.9,126.3
	s123.9-56.6,123.9-126.3l0,0v-123.2C-3012.1-1732.9-3013.9-1734.9-3016.3-1734.9z"/>
<text transform="matrix(1 0 0 1 -3066.3523 -1701.3314)" fill="#4656A6" font-family="'GothamBlack'" font-size="27.5389">TM</text>
<g>
	<path fill="#1A1A1A" d="M-1818.4-989.6c0-69.7-56.1-126.3-125.5-127.3l0,0h-51.6c-2.4,0-4.3,1.8-4.3,4.3v48.4
		c0,2.4-1.8,4.3-4.3,4.3h-50.5c-2.4,0-4.3,1.8-4.3,4.3v7.7v117.1v64.6c0,2.4,1.8,4.3,4.3,4.3h108.8l0,0l0,0h1.8l0,0
		C-1874.4-863.2-1818.4-919.8-1818.4-989.6z"/>
	<g>
		<path fill="#1A1A1A" d="M-2222.7-863.6c-68,0-123.2-56.5-123.2-125.9s55.2-125.9,123.2-125.9s123.2,56.5,123.2,125.9
			C-2099.5-920.1-2154.7-863.6-2222.7-863.6z M-2222.7-1090.1c-53.9,0-97.9,45.1-97.9,100.4c0,55.5,43.8,100.4,97.9,100.4
			c53.9,0,97.9-45.1,97.9-100.4C-2124.8-1045-2168.8-1090.1-2222.7-1090.1z"/>
	</g>
	<path fill="#1A1A1A" d="M-2222.9-819.8c0-2.4-2-4.4-4.4-4.3c-66.4,2.4-119.5,58.3-119.5,126.9c0,70.1,55.5,126.9,123.9,126.9
		c67,0,121.5-54.5,123.8-122.5c0.1-2.4-1.8-4.4-4.3-4.4h-115.2c-2.4,0-4.3-1.8-4.3-4.3V-819.8z"/>
	<path fill="#1A1A1A" d="M-2486.8-987.9c0-1.1,0.4-2.3,1.3-3l43.1-43.1l41.3-41.3c1.7-1.7,1.7-4.4,0-6.1
		c-10.7-10.4-23-18.9-36.7-24.9c-14.9-6.7-31.6-10.2-48.9-10.2c-34.3,0-65.2,14.2-87.6,37.1s-36.3,54.6-36.3,89.8
		c0,35.1,13.8,66.7,36.3,89.8c21.5,21.9,50.8,36,83.2,37.1c2.4,0.1,4.4-1.8,4.4-4.3v-59V-987.9z"/>
	<g>
		<path fill="#1A1A1A" d="M-2446.9-569.7h-115c-9.2,0-16.6-7.5-16.6-16.6v-220.5c0-9.2,7.5-16.6,16.6-16.6h115
			c9.2,0,16.6,7.5,16.6,16.6v220.5C-2430.3-577.3-2437.8-569.7-2446.9-569.7z M-2552.9-595.5h97v-202.6h-97V-595.5z"/>
	</g>
	<g>
		<path fill="#1A1A1A" d="M-1934.9-570c-68.4,0-124.2-56.6-124.2-126.2v-110.7c0-9.1,7.4-16.6,16.6-16.6h215.1
			c9.1,0,16.6,7.4,16.6,16.6v110.7C-1810.7-626.8-1866.5-570-1934.9-570z M-2033.5-798.1v101.7c0,55.5,44.2,100.7,98.6,100.7
			c54.3,0,98.6-45.1,98.6-100.7v-101.7H-2033.5z"/>
	</g>
	<text transform="matrix(1 0 0 1 -1890.939 -764.9735)" fill="#1A1A1A" font-family="'GothamBlack'" font-size="27.5389">TM</text>
</g>
<g>
	<rect x="-1585.1" y="-1269.8" fill="#1A1A1A" width="1138.2" height="853.6"/>
	<path fill="#FFFFFF" d="M-623.3-989.6c0-69.7-56.1-126.3-125.5-127.3l0,0h-51.6c-2.4,0-4.3,1.8-4.3,4.3v48.4c0,2.4-1.8,4.3-4.3,4.3
		h-50.5c-2.4,0-4.3,1.8-4.3,4.3v7.7v117.1v64.6c0,2.4,1.8,4.3,4.3,4.3h108.8l0,0l0,0h1.8l0,0C-679.4-863.2-623.3-919.8-623.3-989.6z
		"/>
	<g>
		<path fill="#FFFFFF" d="M-1027.6-863.6c-68,0-123.2-56.5-123.2-125.9s55.2-125.9,123.2-125.9s123.2,56.5,123.2,125.9
			S-959.6-863.6-1027.6-863.6z M-1027.6-1090.1c-53.9,0-97.9,45.1-97.9,100.4c0,55.5,43.8,100.4,97.9,100.4
			c54.1,0,97.9-45.1,97.9-100.4C-929.8-1045-973.7-1090.1-1027.6-1090.1z"/>
	</g>
	<path fill="#FFFFFF" d="M-1027.8-819.8c0-2.4-2-4.4-4.4-4.3c-66.4,2.4-119.5,58.3-119.5,126.9c0,70.1,55.5,126.9,123.9,126.9
		c67,0,121.5-54.5,123.8-122.5c0.1-2.4-1.8-4.4-4.3-4.4h-115.2c-2.4,0-4.3-1.8-4.3-4.3V-819.8z"/>
	<path fill="#FFFFFF" d="M-1291.7-987.9c0-1.1,0.4-2.3,1.3-3l43.1-43.1l41.3-41.3c1.7-1.7,1.7-4.4,0-6.1
		c-10.7-10.4-23-18.9-36.7-24.9c-14.9-6.7-31.6-10.2-48.9-10.2c-34.3,0-65.2,14.2-87.6,37.1s-36.3,54.6-36.3,89.8
		c0,35,13.8,66.7,36.3,89.8c21.5,21.9,50.8,36,83.2,37.1c2.4,0.1,4.4-1.8,4.4-4.3v-59V-987.9z"/>
	<g>
		<path fill="#FFFFFF" d="M-1251.9-569.7h-115c-9.2,0-16.6-7.5-16.6-16.6v-220.5c0-9.2,7.5-16.6,16.6-16.6h115
			c9.2,0,16.6,7.5,16.6,16.6v220.5C-1235.2-577.3-1242.8-569.7-1251.9-569.7z M-1357.9-595.5h97v-202.6h-97V-595.5z"/>
	</g>
	<g>
		<path fill="#FFFFFF" d="M-739.8-570c-68.4,0-124.2-56.6-124.2-126.2v-110.7c0-9.1,7.4-16.6,16.6-16.6h215.1
			c9.1,0,16.6,7.4,16.6,16.6v110.7C-615.6-626.8-671.4-570-739.8-570z M-838.4-798.1v101.7c0,55.5,44.2,100.7,98.6,100.7
			c54.3,0,98.6-45.1,98.6-100.7v-101.7H-838.4z"/>
	</g>
</g>
<text transform="matrix(1 0 0 1 -695.8472 -764.975)" fill="#FFFFFF" font-family="'GothamBlack'" font-size="27.5389">TM</text>
<g>
	<g>
		<rect x="-1585.1" y="-343.6" fill="#1A1A1A" width="1138.2" height="853.6"/>
	</g>
	<g>
		<path fill="#FFFFFF" d="M-997.3,85c0-1.1,0.4-2.3,1.3-3l43.1-43.1l41.3-41.3c1.7-1.7,1.7-4.4,0-6.1c-10.7-10.4-23-18.9-36.7-24.9
			c-14.9-6.7-31.6-10.2-48.9-10.2c-34.3,0-65.2,14.2-87.6,37.1c-22.5,22.9-36.3,54.6-36.3,89.8c0,35,13.8,66.7,36.3,89.8
			c21.5,21.9,50.8,36,83.2,37.1c2.4,0.1,4.4-1.8,4.4-4.3v-59.2V85z"/>
		<text transform="matrix(1 0 0 1 -952.5801 205.3125)" fill="#FFFFFF" font-family="'GothamBlack'" font-size="27.5389">TM</text>
	</g>
</g>
<g>
	<rect x="-3975.4" y="-1282.6" fill="#4656A6" width="1138.2" height="853.6"/>
	<path fill="#FFFFFF" d="M-3013.8-1002.4c0-69.7-56.1-126.3-125.5-127.3l0,0h-51.6c-2.4,0-4.3,1.8-4.3,4.3v48.4
		c0,2.4-1.8,4.3-4.3,4.3h-50.5c-2.4,0-4.3,1.8-4.3,4.3v7.7v117.1v64.6c0,2.4,1.8,4.3,4.3,4.3h108.8l0,0l0,0h1.8l0,0
		C-3069.8-876-3013.8-932.7-3013.8-1002.4z"/>
	<g>
		<path fill="#FFFFFF" d="M-3418-876.5c-68,0-123.2-56.5-123.2-125.9s55.2-125.9,123.2-125.9c68,0,123.2,56.5,123.2,125.9
			S-3350.1-876.5-3418-876.5z M-3418-1103c-53.9,0-97.9,45.1-97.9,100.4c0,55.3,43.8,100.4,97.9,100.4c54.1,0,97.9-45.1,97.9-100.4
			C-3320.1-1057.9-3364-1103-3418-1103z"/>
	</g>
	<path fill="#FFFFFF" d="M-3418.2-832.6c0-2.4-2-4.4-4.4-4.3c-66.4,2.4-119.5,58.3-119.5,126.9c0,70.1,55.5,126.9,123.9,126.9
		c67,0,121.5-54.5,123.8-122.5c0.1-2.4-1.8-4.4-4.3-4.4H-3414c-2.4,0-4.3-1.8-4.3-4.3V-832.6z"/>
	<path fill="#FFFFFF" d="M-3682.2-1000.7c0-1.1,0.4-2.3,1.3-3l43.1-43.1l41.3-41.3c1.7-1.7,1.7-4.4,0-6.1
		c-10.7-10.4-23-18.9-36.7-24.9c-14.9-6.7-31.6-10.2-48.9-10.2c-34.3,0-65.2,14.2-87.6,37.1c-22.5,22.9-36.3,54.6-36.3,89.8
		c0,35,13.8,66.7,36.3,89.8c21.5,21.9,50.8,36,83.2,37.1c2.4,0.1,4.4-1.8,4.4-4.3v-59V-1000.7z"/>
	<g>
		<path fill="#FFFFFF" d="M-3642.3-582.5h-115c-9.2,0-16.6-7.5-16.6-16.6v-220.5c0-9.2,7.5-16.6,16.6-16.6h115
			c9.2,0,16.6,7.5,16.6,16.6v220.5C-3625.7-590.1-3633.1-582.5-3642.3-582.5z M-3748.3-608.3h97v-202.6h-97V-608.3z"/>
	</g>
	<g>
		<path fill="#FFFFFF" d="M-3130.3-582.8c-68.4,0-124.2-56.6-124.2-126.2v-110.7c0-9.1,7.4-16.6,16.6-16.6h215.1
			c9.1,0,16.6,7.4,16.6,16.6V-709C-3006.1-639.6-3061.9-582.8-3130.3-582.8z M-3228.9-810.9v101.7c0,55.5,44.2,100.7,98.6,100.7
			s98.6-45.1,98.6-100.7v-101.7H-3228.9z"/>
	</g>
	<text transform="matrix(1 0 0 1 -3086.2695 -777.7808)" fill="#FFFFFF" font-family="'GothamBlack'" font-size="27.5389">TM</text>
</g>
<g>
	<g>
		<path fill="#4656A6" d="M-3114.2,28.8c4.6,0,4.6-7.1,0-7.1C-3118.8,21.7-3118.8,28.8-3114.2,28.8L-3114.2,28.8z"/>
	</g>
</g>
<g>
	<rect x="2030.8" y="-2176.7" fill="#4656A6" width="1138.2" height="1758.5"/>
	<g>
		<g>
			<path fill="#FFFFFF" d="M3069.8-734.3c0-35.6-28.6-64.3-63.9-64.9l0,0h-26.3c-1.1,0-2.1,1-2.1,2.1v24.6c0,1.1-1,2.1-2.1,2.1
				h-25.8c-1.1,0-2.1,1-2.1,2.1v3.8v59.6v32.9c0,1.1,1,2.1,2.1,2.1h55.5l0,0l0,0h0.9l0,0C3041.2-670,3069.8-698.8,3069.8-734.3z"/>
			<g>
				<path fill="#FFFFFF" d="M2863.8-670.2c-34.6,0-62.7-28.7-62.7-64.2c0-35.4,28.2-64.2,62.7-64.2s62.7,28.7,62.7,64.2
					C2926.6-698.9,2898.4-670.2,2863.8-670.2z M2863.8-785.5c-27.5,0-49.8,22.9-49.8,51.2s22.3,51.2,49.8,51.2s49.8-22.9,49.8-51.2
					S2891.3-785.5,2863.8-785.5z"/>
			</g>
			<path fill="#FFFFFF" d="M2863.7-647.8c0-1.3-1-2.3-2.3-2.1c-33.9,1.3-60.9,29.7-60.9,64.6c0,35.7,28.3,64.7,63.2,64.7
				c34.1,0,61.9-27.7,63.2-62.5c0-1.3-1-2.3-2.1-2.3h-58.8c-1.1,0-2.1-1-2.1-2.1v-60.3H2863.7z"/>
			<path fill="#FFFFFF" d="M2729.2-733.5c0-0.6,0.3-1.1,0.6-1.6l21.9-21.9l21.1-21.1c0.9-0.9,0.9-2.3,0-3.1
				c-5.4-5.3-11.7-9.7-18.6-12.7c-7.7-3.4-16.1-5.3-24.9-5.3c-17.5,0-33.3,7.3-44.7,18.9s-18.5,27.9-18.5,45.7
				c0,17.9,7.1,34,18.5,45.7c11,11.2,25.9,18.4,42.4,18.9c1.3,0,2.3-1,2.3-2.1v-30L2729.2-733.5L2729.2-733.5z"/>
			<g>
				<path fill="#FFFFFF" d="M2749.6-520.3h-58.6c-4.7,0-8.5-3.8-8.5-8.5v-112.4c0-4.7,3.8-8.5,8.5-8.5h58.6c4.7,0,8.5,3.8,8.5,8.5
					v112.4C2758-524.2,2754.3-520.3,2749.6-520.3z M2695.5-533.4h49.4v-103.3h-49.4V-533.4z"/>
			</g>
			<g>
				<path fill="#FFFFFF" d="M3010.5-520.5c-34.9,0-63.3-28.9-63.3-64.3v-56.5c0-4.7,3.8-8.4,8.5-8.4h109.7c4.7,0,8.5,3.8,8.5,8.4
					v56.5C3073.7-549.4,3045.3-520.5,3010.5-520.5z M2960.1-636.7v51.8c0,28.3,22.6,51.4,50.2,51.4c27.7,0,50.2-23,50.2-51.4v-51.8
					H2960.1z"/>
			</g>
			<text transform="matrix(1 0 0 1 3032.8584 -619.8677)" fill="#FFFFFF" font-family="'GothamBlack'" font-size="14.0331">TM</text>
		</g>
		<g>
			<path fill="#FFFFFF" d="M2521.2-1881.3h-29.6l14.1-29.5L2521.2-1881.3z M2500-1886.4h12.5l-6.5-12.5L2500-1886.4z"/>
		</g>
		<g>
			<path fill="#FFFFFF" d="M2139.2-1882.9c-7.3,0-13.1-5.8-13.1-13.1s5.8-13.1,13.1-13.1s13.1,5.8,13.1,13.1
				S2146.5-1882.9,2139.2-1882.9z M2139.2-1903.9c-4.4,0-7.8,3.6-7.8,7.8c0,4.4,3.6,7.8,7.8,7.8c4.4,0,7.8-3.6,7.8-7.8
				C2147-1900.4,2143.5-1903.9,2139.2-1903.9z"/>
		</g>
		<path fill="#FFFFFF" d="M2506.6-1754.3"/>
		<path fill="#FFFFFF" d="M2146.9-1751c-1.4,1.7-3.6,2.8-6,2.8c-4.4,0-7.8-3.6-7.8-7.8c0-2.4,1.1-4.6,2.8-6l-3.7-3.7
			c-2.7,2.4-4.4,5.8-4.4,9.7c0,7.3,5.8,13.1,13.1,13.1c3.8,0,7.3-1.7,9.7-4.4L2146.9-1751z"/>
		<g>
			<path fill="#FFFFFF" d="M2334.8-1882.9h-26.3v-26.3h26.3V-1882.9z M2313.9-1888.2h15.8v-15.8h-15.8V-1888.2z"/>
		</g>
		<g>
			<g>
				
					<rect x="2306.9" y="-1756.9" transform="matrix(-0.7071 -0.7071 0.7071 -0.7071 5204.0322 -1353.0028)" fill="#FFFFFF" width="29.7" height="5.3"/>
			</g>
			<g>
				
					<rect x="2306.9" y="-1756.9" transform="matrix(-0.7071 -0.7071 0.7071 -0.7071 5204.0322 -1353.0028)" fill="#FFFFFF" width="29.7" height="5.3"/>
			</g>
			<g>
				
					<rect x="2306.9" y="-1756.9" transform="matrix(-0.7071 -0.7071 0.7071 -0.7071 5204.0322 -1353.0028)" fill="#FFFFFF" width="29.7" height="5.3"/>
			</g>
			<g>
				
					<rect x="2319.2" y="-1769.2" transform="matrix(-0.7071 -0.7071 0.7071 -0.7071 5204.0317 -1353.0029)" fill="#FFFFFF" width="5.3" height="29.7"/>
			</g>
			<g>
				
					<rect x="2319.2" y="-1769.2" transform="matrix(-0.7071 -0.7071 0.7071 -0.7071 5204.0317 -1353.0029)" fill="#FFFFFF" width="5.3" height="29.7"/>
			</g>
			<g>
				
					<rect x="2319.2" y="-1769.2" transform="matrix(-0.7071 -0.7071 0.7071 -0.7071 5204.0317 -1353.0029)" fill="#FFFFFF" width="5.3" height="29.7"/>
			</g>
		</g>
		<polygon fill="#FFFFFF" points="2498.2,-1746 2498.2,-1767.5 2493.3,-1767.5 2493.3,-1741.2 2519.7,-1741.2 2519.7,-1746 		"/>
		<g>
			
				<rect x="2672.5" y="-1759.6" transform="matrix(0.7071 -0.7071 0.7071 0.7071 2029.4364 1385.6328)" fill="#FFFFFF" width="29.7" height="5.3"/>
		</g>
		<g>
			<g>
				<rect x="3052.3" y="-1769.6" fill="#FFFFFF" width="4.6" height="25.6"/>
			</g>
			<g>
				<rect x="3041.8" y="-1759.1" fill="#FFFFFF" width="25.6" height="4.6"/>
			</g>
		</g>
		<path fill="#FFFFFF" d="M3054.6-1898.5"/>
		<path fill="#FFFFFF" d="M2695.1-1895.3c-1.4,1.7-3.6,2.8-6,2.8c-4.4,0-7.8-3.6-7.8-7.8c0-2.4,1.1-4.6,2.8-6l-3.7-3.7
			c-2.7,2.4-4.4,5.8-4.4,9.7c0,7.3,5.8,13.1,13.1,13.1c3.8,0,7.3-1.7,9.7-4.4L2695.1-1895.3z"/>
		<g>
			
				<rect x="2124.3" y="-2042.5" transform="matrix(0.7071 -0.7071 0.7071 0.7071 2068.9424 915.1639)" fill="#FFFFFF" width="29.7" height="5.3"/>
		</g>
		<g>
			<g>
				<rect x="2504.3" y="-2052.6" fill="#FFFFFF" width="4.6" height="25.6"/>
			</g>
			<g>
				<rect x="2493.8" y="-2042.1" fill="#FFFFFF" width="25.6" height="4.6"/>
			</g>
		</g>
		<g>
			<path fill="#FFFFFF" d="M2321.8-2058.3l18.6,18.6l-18.6,18.6l-18.6-18.6L2321.8-2058.3z M2332.8-2039.8l-11.1-11.1l-11.1,11.1
				l11.1,11.1L2332.8-2039.8z"/>
		</g>
		<g>
			<path fill="#FFFFFF" d="M3069.4-2025.6h-29.6l14.1-29.5L3069.4-2025.6z M3048.2-2030.9h12.5l-6.5-12.5L3048.2-2030.9z"/>
		</g>
		<g>
			<path fill="#FFFFFF" d="M2687.2-2027.2c-7.3,0-13.1-5.8-13.1-13.1s5.8-13.1,13.1-13.1s13.1,5.8,13.1,13.1
				C2700.5-2033.1,2694.5-2027.2,2687.2-2027.2z M2687.2-2048.2c-4.4,0-7.8,3.6-7.8,7.8c0,4.4,3.6,7.8,7.8,7.8
				c4.4,0,7.8-3.6,7.8-7.8C2695.2-2044.7,2691.7-2048.2,2687.2-2048.2z"/>
		</g>
		<g>
			<path fill="#FFFFFF" d="M2883-2027.2h-26.3v-26.3h26.3V-2027.2z M2862-2032.4h15.8v-15.8H2862V-2032.4z"/>
		</g>
		<g>
			<path fill="#FFFFFF" d="M2869.9-1775.5l18.6,18.6l-18.6,18.6l-18.6-18.6L2869.9-1775.5z M2881-1756.8l-11.1-11.1l-11.1,11.1
				l11.1,11.1L2881-1756.8z"/>
		</g>
		<g>
			<g>
				
					<rect x="2855" y="-1901.3" transform="matrix(-0.7071 -0.7071 0.7071 -0.7071 6241.6807 -1211.8973)" fill="#FFFFFF" width="29.7" height="5.3"/>
			</g>
			<g>
				
					<rect x="2855" y="-1901.3" transform="matrix(-0.7071 -0.7071 0.7071 -0.7071 6241.6807 -1211.8973)" fill="#FFFFFF" width="29.7" height="5.3"/>
			</g>
			<g>
				
					<rect x="2855" y="-1901.3" transform="matrix(-0.7071 -0.7071 0.7071 -0.7071 6241.6807 -1211.8973)" fill="#FFFFFF" width="29.7" height="5.3"/>
			</g>
			<g>
				
					<rect x="2867.2" y="-1913.5" transform="matrix(-0.7071 -0.7071 0.7071 -0.7071 6241.6807 -1211.897)" fill="#FFFFFF" width="5.3" height="29.7"/>
			</g>
			<g>
				
					<rect x="2867.2" y="-1913.5" transform="matrix(-0.7071 -0.7071 0.7071 -0.7071 6241.6807 -1211.897)" fill="#FFFFFF" width="5.3" height="29.7"/>
			</g>
			<g>
				
					<rect x="2867.2" y="-1913.5" transform="matrix(-0.7071 -0.7071 0.7071 -0.7071 6241.6807 -1211.897)" fill="#FFFFFF" width="5.3" height="29.7"/>
			</g>
		</g>
		<polygon fill="#FFFFFF" points="3046.3,-1890.3 3046.3,-1911.8 3041.5,-1911.8 3041.5,-1885.5 3067.8,-1885.5 3067.8,-1890.3 		
			"/>
		<g>
			
				<rect x="2124.4" y="-533.1" transform="matrix(0.7071 -0.7071 0.7071 0.7071 1001.683 1357.2856)" fill="#FFFFFF" width="29.7" height="5.3"/>
		</g>
		<g>
			<g>
				<rect x="2504.3" y="-543.3" fill="#FFFFFF" width="4.6" height="25.6"/>
			</g>
			<g>
				<rect x="2493.8" y="-532.7" fill="#FFFFFF" width="25.6" height="4.6"/>
			</g>
		</g>
		<g>
			<path fill="#FFFFFF" d="M2521.2-799.1h-29.6l14.1-29.5L2521.2-799.1z M2500-804.3h12.5l-6.5-12.5L2500-804.3z"/>
		</g>
		<g>
			<path fill="#FFFFFF" d="M2139.2-800.8c-7.3,0-13.1-5.8-13.1-13.1c0-7.3,5.8-13.1,13.1-13.1s13.1,5.8,13.1,13.1
				C2152.3-806.6,2146.5-800.8,2139.2-800.8z M2139.2-821.8c-4.4,0-7.8,3.6-7.8,7.8c0,4.4,3.6,7.8,7.8,7.8c4.4,0,7.8-3.6,7.8-7.8
				S2143.5-821.8,2139.2-821.8z"/>
		</g>
		<path fill="#FFFFFF" d="M2506.6-672.2"/>
		<path fill="#FFFFFF" d="M2146.9-668.9c-1.4,1.7-3.6,2.8-6,2.8c-4.4,0-7.8-3.6-7.8-7.8c0-2.4,1.1-4.6,2.8-6l-3.7-3.7
			c-2.7,2.4-4.4,5.8-4.4,9.7c0,7.3,5.8,13.1,13.1,13.1c3.8,0,7.3-1.7,9.7-4.4L2146.9-668.9z"/>
		<g>
			<path fill="#FFFFFF" d="M2334.8-800.8h-26.3v-26.3h26.3V-800.8z M2313.9-806h15.8v-15.8h-15.8V-806z"/>
		</g>
		<g>
			<path fill="#FFFFFF" d="M2321.8-549.1l18.6,18.6l-18.6,18.6l-18.6-18.6L2321.8-549.1z M2332.8-530.4l-11.1-11.1l-11.1,11.1
				l11.1,11.1L2332.8-530.4z"/>
		</g>
		<g>
			<g>
				
					<rect x="2306.9" y="-674.8" transform="matrix(-0.7071 -0.7071 0.7071 -0.7071 4438.8818 494.3075)" fill="#FFFFFF" width="29.7" height="5.3"/>
			</g>
			<g>
				
					<rect x="2306.9" y="-674.8" transform="matrix(-0.7071 -0.7071 0.7071 -0.7071 4438.8818 494.3075)" fill="#FFFFFF" width="29.7" height="5.3"/>
			</g>
			<g>
				
					<rect x="2306.9" y="-674.8" transform="matrix(-0.7071 -0.7071 0.7071 -0.7071 4438.8818 494.3075)" fill="#FFFFFF" width="29.7" height="5.3"/>
			</g>
			<g>
				
					<rect x="2319.2" y="-687" transform="matrix(-0.7071 -0.7071 0.7071 -0.7071 4438.8818 494.3075)" fill="#FFFFFF" width="5.3" height="29.7"/>
			</g>
			<g>
				
					<rect x="2319.2" y="-687" transform="matrix(-0.7071 -0.7071 0.7071 -0.7071 4438.8818 494.3075)" fill="#FFFFFF" width="5.3" height="29.7"/>
			</g>
			<g>
				
					<rect x="2319.2" y="-687" transform="matrix(-0.7071 -0.7071 0.7071 -0.7071 4438.8818 494.3075)" fill="#FFFFFF" width="5.3" height="29.7"/>
			</g>
		</g>
		<polygon fill="#FFFFFF" points="2498.2,-663.9 2498.2,-685.2 2493.3,-685.2 2493.3,-659.1 2519.7,-659.1 2519.7,-663.9 		"/>
		<text transform="matrix(1 0 0 1 2101.5938 -1451.1749)" fill="#FFFFFF" font-family="'GothamBlack'" font-size="178.1652">BUILDING</text>
		<text transform="matrix(1 0 0 1 2101.5938 -1237.3389)" fill="#FFFFFF" font-family="'GothamBlack'" font-size="178.1652">WHATS</text>
		<text transform="matrix(1 0 0 1 2101.5938 -1023.6451)" fill="#FFFFFF" font-family="'GothamBlack'" font-size="178.1652">NEXT</text>
	</g>
</g>
<g>
	<path fill="#1A1A1A" d="M792.3,153.7c0-69.7-56.1-126.3-125.5-127.3l0,0h-51.6c-2.4,0-4.3,1.8-4.3,4.3v48.4c0,2.4-1.8,4.3-4.3,4.3
		h-50.5c-2.4,0-4.3,1.8-4.3,4.3v7.7v117.1v64.4c0,2.4,1.8,4.3,4.3,4.3H665l0,0l0,0h1.8l0,0C736.3,280.1,792.3,223.5,792.3,153.7z"/>
	<g>
		<path fill="#1A1A1A" d="M388.1,279.7c-68,0-123.2-56.5-123.2-125.9S320.1,27.8,388.1,27.8s123.2,56.5,123.2,125.9
			S456,279.7,388.1,279.7z M388.1,53.3c-53.9,0-97.9,45.1-97.9,100.4s43.8,100.4,97.9,100.4S486,209.1,486,153.7
			S442,53.3,388.1,53.3z"/>
	</g>
	<path fill="#1A1A1A" d="M387.8,323.5c0-2.4-2-4.4-4.4-4.3c-66.4,2.4-119.5,58.3-119.5,126.9c0,70.1,55.5,126.9,123.9,126.9
		c67,0,121.5-54.5,123.8-122.5c0.1-2.4-1.8-4.4-4.3-4.4H392.1c-2.4,0-4.3-1.8-4.3-4.3V323.5z"/>
	<path fill="#1A1A1A" d="M123.9,155.5c0-1.1,0.4-2.3,1.3-3l43.1-43.1l41.3-41.3c1.7-1.7,1.7-4.4,0-6.1c-10.7-10.4-23-18.9-36.7-24.9
		c-14.9-6.7-31.6-10.2-48.9-10.2c-34.3,0-65.2,14.2-87.6,37.1S0,118.7,0,153.7s13.8,66.7,36.3,89.8c21.5,21.9,50.8,35.9,83.2,37.1
		c2.4,0.1,4.4-1.8,4.4-4.3v-59V155.5z"/>
	<g>
		<path fill="#1A1A1A" d="M163.8,573.6h-115c-9.2,0-16.6-7.5-16.6-16.6V336.4c0-9.2,7.5-16.6,16.6-16.6h115
			c9.2,0,16.6,7.5,16.6,16.6v220.5C180.4,566.1,173,573.6,163.8,573.6z M57.8,548h97V345.2h-97V548z"/>
	</g>
	<g>
		<path fill="#1A1A1A" d="M675.8,573.3c-68.4,0-124.2-56.6-124.2-126.2V336.4c0-9.1,7.4-16.6,16.6-16.6h215.1
			c9.1,0,16.6,7.4,16.6,16.6v110.7C800,516.7,744.2,573.3,675.8,573.3z M577.2,345.2V447c0,55.5,44.2,100.7,98.6,100.7
			s98.6-45.1,98.6-100.7V345.2L577.2,345.2L577.2,345.2z"/>
	</g>
</g>
</svg>
